# Exported from Wings 3D 0.98.29b
mtllib alert.mtl
o text1
#20 vertices, 16 faces
v -9.0376432e-2 0.24804688 8.4308863e-2
v -9.0376432e-2 -5.1622584e-18 8.4308863e-2
v 0.10786576 -5.1622584e-18 8.4308863e-2
v 0.10786576 0.24804688 8.4308863e-2
v -9.0376432e-2 0.24804688 -0.11569114
v -9.0376432e-2 -5.1622584e-18 -0.11569114
v 0.10786576 -5.1622584e-18 -0.11569114
v 0.10786576 0.24804688 -0.11569114
v -9.0376432e-2 1.45800781 8.4308863e-2
v -9.0376432e-2 0.81835938 8.4308863e-2
v -6.9868620e-2 0.46972656 8.4308863e-2
v 8.8334505e-2 0.46972656 8.4308863e-2
v 0.10786576 0.81835938 8.4308863e-2
v 0.10786576 1.45800781 8.4308863e-2
v -9.0376432e-2 1.45800781 -0.11569114
v -9.0376432e-2 0.81835938 -0.11569114
v -6.9868620e-2 0.46972656 -0.11569114
v 8.8334505e-2 0.46972656 -0.11569114
v 0.10786576 0.81835938 -0.11569114
v 0.10786576 1.45800781 -0.11569114
vn -0.70664912 -2.0765850e-2 0.70725936
vn 0.70669158 -1.9779775e-2 0.70724520
vn -0.70664912 -2.0765850e-2 -0.70725936
vn 0.70669158 -1.9779775e-2 -0.70724520
vn -0.70710678 0.0000000e+0 0.70710678
vn -0.70710678 0.0000000e+0 0.70710678
vn 0.0000000e+0 1.00000000 0.0000000e+0
vn -0.70710678 0.0000000e+0 0.70710678
vn -0.70710678 0.0000000e+0 0.70710678
vn 0.0000000e+0 -1.00000000 0.0000000e+0
vn 0.70710678 0.0000000e+0 0.70710678
vn 0.0000000e+0 -1.00000000 0.0000000e+0
vn 0.70710678 0.0000000e+0 0.70710678
vn 0.70710678 0.0000000e+0 0.70710678
vn 0.70710678 0.0000000e+0 0.70710678
vn 0.0000000e+0 1.00000000 0.0000000e+0
vn -0.70710678 0.0000000e+0 -0.70710678
vn -0.70710678 0.0000000e+0 -0.70710678
vn 0.0000000e+0 1.00000000 0.0000000e+0
vn -0.70710678 0.0000000e+0 -0.70710678
vn -0.70710678 0.0000000e+0 -0.70710678
vn 0.0000000e+0 -1.00000000 0.0000000e+0
vn 0.70710678 0.0000000e+0 -0.70710678
vn 0.0000000e+0 -1.00000000 0.0000000e+0
vn 0.70710678 0.0000000e+0 -0.70710678
vn 0.70710678 0.0000000e+0 -0.70710678
vn 0.70710678 0.0000000e+0 -0.70710678
vn 0.0000000e+0 1.00000000 0.0000000e+0
vn -0.70710678 0.0000000e+0 0.70710678
vn -0.70710678 0.0000000e+0 0.70710678
vn 0.0000000e+0 1.00000000 0.0000000e+0
vn -0.70588658 -4.1522740e-2 0.70710678
vn -0.70588658 -4.1522740e-2 0.70710678
vn 0.0000000e+0 -1.00000000 0.0000000e+0
vn 0.70599976 -3.9551807e-2 0.70710678
vn 0.0000000e+0 -1.00000000 0.0000000e+0
vn 0.70599976 -3.9551807e-2 0.70710678
vn 0.70710678 0.0000000e+0 0.70710678
vn 0.70710678 0.0000000e+0 0.70710678
vn 0.0000000e+0 1.00000000 0.0000000e+0
vn -0.70710678 0.0000000e+0 -0.70710678
vn -0.70710678 0.0000000e+0 -0.70710678
vn 0.0000000e+0 1.00000000 0.0000000e+0
vn -0.70588658 -4.1522740e-2 -0.70710678
vn -0.70588658 -4.1522740e-2 -0.70710678
vn 0.0000000e+0 -1.00000000 0.0000000e+0
vn 0.70599976 -3.9551807e-2 -0.70710678
vn 0.0000000e+0 -1.00000000 0.0000000e+0
vn 0.70599976 -3.9551807e-2 -0.70710678
vn 0.70710678 0.0000000e+0 -0.70710678
vn 0.70710678 0.0000000e+0 -0.70710678
vn 0.0000000e+0 1.00000000 0.0000000e+0
g text1_alert
usemtl alert
f 1//6 5//18 6//21 2//9
f 2//8 3//11 4//14 1//5
f 2//10 6//22 7//24 3//12
f 3//13 7//25 8//27 4//15
f 4//16 8//28 5//19 1//7
f 5//17 8//26 7//23 6//20
f 9//30 15//42 16//3 10//1
f 10//1 13//2 14//38 9//29
f 10//1 16//3 17//45 11//33
f 11//32 12//35 13//2 10//1
f 11//34 17//46 18//48 12//36
f 12//37 18//49 19//4 13//2
f 13//2 19//4 20//51 14//39
f 14//40 20//52 15//43 9//31
f 15//41 20//50 19//4 16//3
f 16//3 19//4 18//47 17//44
