# Exported from Wings 3D 0.98.29b
mtllib bucket.mtl
o cylinder6
#64 vertices, 50 faces
v 1.39000000 2.00000000 1.6913554e-17
v 1.28419255 2.00000000 0.53192997
v 0.98287843 2.00000000 0.98287843
v 0.53192997 2.00000000 1.28419255
v 1.0405332e-16 2.00000000 1.39000000
v -0.53192997 2.00000000 1.28419255
v -0.98287843 2.00000000 0.98287843
v -1.28419255 2.00000000 0.53192997
v -1.39000000 2.00000000 1.8713384e-16
v -1.28419255 2.00000000 -0.53192997
v -0.98287843 2.00000000 -0.98287843
v -0.53192997 2.00000000 -1.28419255
v -2.3638724e-16 2.00000000 -1.39000000
v 0.53192997 2.00000000 -1.28419255
v 0.98287843 2.00000000 -0.98287843
v 1.28419255 2.00000000 -0.53192997
v 1.00000000 0.0000000e+0 0.0000000e+0
v 0.92387953 0.0000000e+0 0.38268343
v 0.70710678 0.0000000e+0 0.70710678
v 0.38268343 0.0000000e+0 0.92387953
v 6.1230318e-17 0.0000000e+0 1.00000000
v -0.38268343 0.0000000e+0 0.92387953
v -0.70710678 0.0000000e+0 0.70710678
v -0.92387953 0.0000000e+0 0.38268343
v -1.00000000 0.0000000e+0 1.2246064e-16
v -0.92387953 0.0000000e+0 -0.38268343
v -0.70710678 0.0000000e+0 -0.70710678
v -0.38268343 0.0000000e+0 -0.92387953
v -1.8369095e-16 0.0000000e+0 -1.00000000
v 0.38268343 0.0000000e+0 -0.92387953
v 0.70710678 0.0000000e+0 -0.70710678
v 0.92387953 0.0000000e+0 -0.38268343
v 1.19429907 2.00000000 0.49469487
v 1.29270000 2.00000000 2.6739701e-17
v 1.19429907 2.00000000 -0.49469487
v 0.91407694 2.00000000 -0.91407694
v 0.49469487 2.00000000 -1.19429907
v -2.1813869e-16 2.00000000 -1.29270000
v -0.49469487 2.00000000 -1.19429907
v -0.91407694 2.00000000 -0.91407694
v -1.19429907 2.00000000 -0.49469487
v -1.29270000 2.00000000 1.7590396e-16
v -1.19429907 2.00000000 0.49469487
v -0.91407694 2.00000000 0.91407694
v -0.49469487 2.00000000 1.19429907
v 1.0686079e-16 2.00000000 1.29270000
v 0.49469487 2.00000000 1.19429907
v 0.91407694 2.00000000 0.91407694
v 0.85920797 0.10000000 0.35589559
v 0.93000000 0.10000000 7.0691703e-18
v 0.85920797 0.10000000 -0.35589559
v 0.65760931 0.10000000 -0.65760931
v 0.35589559 0.10000000 -0.85920797
v -1.7056249e-16 0.10000000 -0.93000000
v -0.35589559 0.10000000 -0.85920797
v -0.65760931 0.10000000 -0.65760931
v -0.85920797 0.10000000 -0.35589559
v -0.93000000 0.10000000 1.1438158e-16
v -0.85920797 0.10000000 0.35589559
v -0.65760931 0.10000000 0.65760931
v -0.35589559 0.10000000 0.85920797
v 6.3250081e-17 0.10000000 0.93000000
v 0.35589559 0.10000000 0.85920797
v 0.65760931 0.10000000 0.65760931
vn 0.98151308 -0.19139505 -2.4037664e-16
vn 0.98151308 -0.19139505 -2.4037664e-16
vn 5.5571948e-16 1.00000000 0.0000000e+0
vn 5.5571948e-16 1.00000000 0.0000000e+0
vn 0.90679985 -0.19139505 0.37560880
vn 0.90679985 -0.19139505 0.37560880
vn 0.0000000e+0 1.00000000 0.0000000e+0
vn 0.0000000e+0 1.00000000 0.0000000e+0
vn 0.69403456 -0.19139505 0.69403456
vn 0.69403456 -0.19139505 0.69403456
vn 0.0000000e+0 1.00000000 0.0000000e+0
vn 0.0000000e+0 1.00000000 0.0000000e+0
vn 0.37560880 -0.19139505 0.90679985
vn 0.37560880 -0.19139505 0.90679985
vn 0.0000000e+0 1.00000000 0.0000000e+0
vn 0.0000000e+0 1.00000000 0.0000000e+0
vn 0.0000000e+0 -0.19139505 0.98151308
vn 0.0000000e+0 -0.19139505 0.98151308
vn 0.0000000e+0 1.00000000 0.0000000e+0
vn 0.0000000e+0 1.00000000 0.0000000e+0
vn -0.37560880 -0.19139505 0.90679985
vn -0.37560880 -0.19139505 0.90679985
vn 0.0000000e+0 1.00000000 0.0000000e+0
vn 0.0000000e+0 1.00000000 0.0000000e+0
vn -0.69403456 -0.19139505 0.69403456
vn -0.69403456 -0.19139505 0.69403456
vn 5.5571948e-16 1.00000000 0.0000000e+0
vn 5.5571948e-16 1.00000000 0.0000000e+0
vn -0.90679985 -0.19139505 0.37560880
vn -0.90679985 -0.19139505 0.37560880
vn -5.5571948e-16 1.00000000 0.0000000e+0
vn -5.5571948e-16 1.00000000 0.0000000e+0
vn -0.98151308 -0.19139505 9.8978617e-17
vn -0.98151308 -0.19139505 9.8978617e-17
vn -2.2228779e-15 1.00000000 0.0000000e+0
vn -2.2228779e-15 1.00000000 0.0000000e+0
vn -0.90679985 -0.19139505 -0.37560880
vn -0.90679985 -0.19139505 -0.37560880
vn -1.1114390e-15 1.00000000 0.0000000e+0
vn -1.1114390e-15 1.00000000 0.0000000e+0
vn -0.69403456 -0.19139505 -0.69403456
vn -0.69403456 -0.19139505 -0.69403456
vn 0.0000000e+0 1.00000000 0.0000000e+0
vn 0.0000000e+0 1.00000000 0.0000000e+0
vn -0.37560880 -0.19139505 -0.90679985
vn -0.37560880 -0.19139505 -0.90679985
vn 0.0000000e+0 1.00000000 0.0000000e+0
vn 0.0000000e+0 1.00000000 0.0000000e+0
vn -1.8381743e-16 -0.19139505 -0.98151308
vn -1.8381743e-16 -0.19139505 -0.98151308
vn 0.0000000e+0 1.00000000 0.0000000e+0
vn 0.0000000e+0 1.00000000 0.0000000e+0
vn 0.37560880 -0.19139505 -0.90679985
vn 0.37560880 -0.19139505 -0.90679985
vn 0.0000000e+0 1.00000000 0.0000000e+0
vn 0.0000000e+0 1.00000000 0.0000000e+0
vn 0.69403456 -0.19139505 -0.69403456
vn 0.69403456 -0.19139505 -0.69403456
vn -5.5571948e-16 1.00000000 0.0000000e+0
vn -5.5571948e-16 1.00000000 0.0000000e+0
vn 0.90679985 -0.19139505 -0.37560880
vn 0.90679985 -0.19139505 -0.37560880
vn -1.8735446e-30 1.00000000 0.0000000e+0
vn -1.8735446e-30 1.00000000 0.0000000e+0
vn 0.0000000e+0 -1.00000000 0.0000000e+0
vn 0.98151308 -0.19139505 -2.4037664e-16
vn 0.98151308 -0.19139505 -2.4037664e-16
vn 0.0000000e+0 -1.00000000 0.0000000e+0
vn 0.90679985 -0.19139505 0.37560880
vn 0.90679985 -0.19139505 0.37560880
vn 0.0000000e+0 -1.00000000 0.0000000e+0
vn 0.69403456 -0.19139505 0.69403456
vn 0.69403456 -0.19139505 0.69403456
vn 0.0000000e+0 -1.00000000 0.0000000e+0
vn 0.37560880 -0.19139505 0.90679985
vn 0.37560880 -0.19139505 0.90679985
vn 0.0000000e+0 -1.00000000 0.0000000e+0
vn 0.0000000e+0 -0.19139505 0.98151308
vn 0.0000000e+0 -0.19139505 0.98151308
vn 0.0000000e+0 -1.00000000 0.0000000e+0
vn -0.37560880 -0.19139505 0.90679985
vn -0.37560880 -0.19139505 0.90679985
vn 0.0000000e+0 -1.00000000 0.0000000e+0
vn -0.69403456 -0.19139505 0.69403456
vn -0.69403456 -0.19139505 0.69403456
vn 0.0000000e+0 -1.00000000 0.0000000e+0
vn -0.90679985 -0.19139505 0.37560880
vn -0.90679985 -0.19139505 0.37560880
vn 0.0000000e+0 -1.00000000 0.0000000e+0
vn -0.98151308 -0.19139505 9.8978617e-17
vn -0.98151308 -0.19139505 9.8978617e-17
vn 0.0000000e+0 -1.00000000 0.0000000e+0
vn -0.90679985 -0.19139505 -0.37560880
vn -0.90679985 -0.19139505 -0.37560880
vn 0.0000000e+0 -1.00000000 0.0000000e+0
vn -0.69403456 -0.19139505 -0.69403456
vn -0.69403456 -0.19139505 -0.69403456
vn 0.0000000e+0 -1.00000000 0.0000000e+0
vn -0.37560880 -0.19139505 -0.90679985
vn -0.37560880 -0.19139505 -0.90679985
vn 0.0000000e+0 -1.00000000 0.0000000e+0
vn -1.8381743e-16 -0.19139505 -0.98151308
vn -1.8381743e-16 -0.19139505 -0.98151308
vn 0.0000000e+0 -1.00000000 0.0000000e+0
vn 0.37560880 -0.19139505 -0.90679985
vn 0.37560880 -0.19139505 -0.90679985
vn 0.0000000e+0 -1.00000000 0.0000000e+0
vn 0.69403456 -0.19139505 -0.69403456
vn 0.69403456 -0.19139505 -0.69403456
vn 0.0000000e+0 -1.00000000 0.0000000e+0
vn 0.90679985 -0.19139505 -0.37560880
vn 0.90679985 -0.19139505 -0.37560880
vn 0.0000000e+0 1.00000000 0.0000000e+0
vn 0.0000000e+0 1.00000000 0.0000000e+0
vn -0.90749261 0.18750882 -0.37589575
vn -0.90749261 0.18750882 -0.37589575
vn 5.5571948e-16 1.00000000 0.0000000e+0
vn 5.5571948e-16 1.00000000 0.0000000e+0
vn -0.98226292 0.18750882 -4.2420597e-17
vn -0.98226292 0.18750882 -4.2420597e-17
vn -1.8735446e-30 1.00000000 0.0000000e+0
vn -1.8735446e-30 1.00000000 0.0000000e+0
vn -0.90749261 0.18750882 0.37589575
vn -0.90749261 0.18750882 0.37589575
vn -5.5571948e-16 1.00000000 0.0000000e+0
vn -5.5571948e-16 1.00000000 0.0000000e+0
vn -0.69456477 0.18750882 0.69456477
vn -0.69456477 0.18750882 0.69456477
vn 0.0000000e+0 1.00000000 0.0000000e+0
vn 0.0000000e+0 1.00000000 0.0000000e+0
vn -0.37589575 0.18750882 0.90749261
vn -0.37589575 0.18750882 0.90749261
vn 0.0000000e+0 1.00000000 0.0000000e+0
vn 0.0000000e+0 1.00000000 0.0000000e+0
vn 9.8981394e-17 0.18750882 0.98226292
vn 9.8981394e-17 0.18750882 0.98226292
vn 0.0000000e+0 1.00000000 0.0000000e+0
vn 0.0000000e+0 1.00000000 0.0000000e+0
vn 0.37589575 0.18750882 0.90749261
vn 0.37589575 0.18750882 0.90749261
vn 0.0000000e+0 1.00000000 0.0000000e+0
vn 0.0000000e+0 1.00000000 0.0000000e+0
vn 0.69456477 0.18750882 0.69456477
vn 0.69456477 0.18750882 0.69456477
vn -1.1114390e-15 1.00000000 0.0000000e+0
vn -1.1114390e-15 1.00000000 0.0000000e+0
vn 0.90749261 0.18750882 0.37589575
vn 0.90749261 0.18750882 0.37589575
vn -2.2228779e-15 1.00000000 0.0000000e+0
vn -2.2228779e-15 1.00000000 0.0000000e+0
vn 0.98226292 0.18750882 -1.4140199e-16
vn 0.98226292 0.18750882 -1.4140199e-16
vn -5.5571948e-16 1.00000000 0.0000000e+0
vn -5.5571948e-16 1.00000000 0.0000000e+0
vn 0.90749261 0.18750882 -0.37589575
vn 0.90749261 0.18750882 -0.37589575
vn 5.5571948e-16 1.00000000 0.0000000e+0
vn 5.5571948e-16 1.00000000 0.0000000e+0
vn 0.69456477 0.18750882 -0.69456477
vn 0.69456477 0.18750882 -0.69456477
vn 0.0000000e+0 1.00000000 0.0000000e+0
vn 0.0000000e+0 1.00000000 0.0000000e+0
vn 0.37589575 0.18750882 -0.90749261
vn 0.37589575 0.18750882 -0.90749261
vn 0.0000000e+0 1.00000000 0.0000000e+0
vn 0.0000000e+0 1.00000000 0.0000000e+0
vn 0.0000000e+0 0.18750882 -0.98226292
vn 0.0000000e+0 0.18750882 -0.98226292
vn 0.0000000e+0 1.00000000 0.0000000e+0
vn 0.0000000e+0 1.00000000 0.0000000e+0
vn -0.37589575 0.18750882 -0.90749261
vn -0.37589575 0.18750882 -0.90749261
vn 0.0000000e+0 1.00000000 0.0000000e+0
vn 0.0000000e+0 1.00000000 0.0000000e+0
vn -0.69456477 0.18750882 -0.69456477
vn -0.69456477 0.18750882 -0.69456477
vn 0.0000000e+0 1.00000000 -1.7361234e-17
vn -0.90749261 0.18750882 -0.37589575
vn -0.90749261 0.18750882 -0.37589575
vn 0.0000000e+0 1.00000000 -1.7361234e-17
vn -0.98226292 0.18750882 -4.2420597e-17
vn -0.98226292 0.18750882 -4.2420597e-17
vn 0.0000000e+0 1.00000000 -1.7361234e-17
vn -0.90749261 0.18750882 0.37589575
vn -0.90749261 0.18750882 0.37589575
vn 0.0000000e+0 1.00000000 -1.7361234e-17
vn -0.69456477 0.18750882 0.69456477
vn -0.69456477 0.18750882 0.69456477
vn 0.0000000e+0 1.00000000 -1.7361234e-17
vn -0.37589575 0.18750882 0.90749261
vn -0.37589575 0.18750882 0.90749261
vn 0.0000000e+0 1.00000000 -1.7361234e-17
vn 9.8981394e-17 0.18750882 0.98226292
vn 9.8981394e-17 0.18750882 0.98226292
vn 0.0000000e+0 1.00000000 -1.7361234e-17
vn 0.37589575 0.18750882 0.90749261
vn 0.37589575 0.18750882 0.90749261
vn 0.0000000e+0 1.00000000 -1.7361234e-17
vn 0.69456477 0.18750882 0.69456477
vn 0.69456477 0.18750882 0.69456477
vn 0.0000000e+0 1.00000000 -1.7361234e-17
vn 0.90749261 0.18750882 0.37589575
vn 0.90749261 0.18750882 0.37589575
vn 0.0000000e+0 1.00000000 -1.7361234e-17
vn 0.98226292 0.18750882 -1.4140199e-16
vn 0.98226292 0.18750882 -1.4140199e-16
vn 0.0000000e+0 1.00000000 -1.7361234e-17
vn 0.90749261 0.18750882 -0.37589575
vn 0.90749261 0.18750882 -0.37589575
vn 0.0000000e+0 1.00000000 -1.7361234e-17
vn 0.69456477 0.18750882 -0.69456477
vn 0.69456477 0.18750882 -0.69456477
vn 0.0000000e+0 1.00000000 -1.7361234e-17
vn 0.37589575 0.18750882 -0.90749261
vn 0.37589575 0.18750882 -0.90749261
vn 0.0000000e+0 1.00000000 -1.7361234e-17
vn 0.0000000e+0 0.18750882 -0.98226292
vn 0.0000000e+0 0.18750882 -0.98226292
vn 0.0000000e+0 1.00000000 -1.7361234e-17
vn -0.37589575 0.18750882 -0.90749261
vn -0.37589575 0.18750882 -0.90749261
vn 0.0000000e+0 1.00000000 -1.7361234e-17
vn -0.69456477 0.18750882 -0.69456477
vn -0.69456477 0.18750882 -0.69456477
g cylinder6_metal
usemtl metal
f 1//1 17//66 32//111 16//61
f 1//3 34//117 33//113 2//7
f 2//6 18//70 17//67 1//2
f 2//8 33//114 48//174 3//12
f 3//10 19//73 18//69 2//5
f 3//11 48//173 47//170 4//16
f 4//14 20//76 19//72 3//9
f 4//15 47//169 46//166 5//20
f 5//18 21//79 20//75 4//13
f 5//19 46//165 45//162 6//24
f 6//22 22//82 21//78 5//17
f 6//23 45//161 44//158 7//28
f 7//26 23//85 22//81 6//21
f 7//27 44//157 43//154 8//32
f 8//30 24//88 23//84 7//25
f 8//31 43//153 42//150 9//36
f 9//34 25//91 24//87 8//29
f 9//35 42//149 41//146 10//40
f 10//38 26//94 25//90 9//33
f 10//39 41//145 40//142 11//44
f 11//42 27//97 26//93 10//37
f 11//43 40//141 39//138 12//48
f 12//46 28//100 27//96 11//41
f 12//47 39//137 38//134 13//52
f 13//50 29//103 28//99 12//45
f 13//51 38//133 37//130 14//56
f 14//54 30//106 29//102 13//49
f 14//55 37//129 36//126 15//60
f 15//58 31//109 30//105 14//53
f 15//59 36//125 35//122 16//64
f 16//62 32//112 31//108 15//57
f 16//63 35//121 34//118 1//4
f 18//68 19//71 20//74 21//77 22//80 23//83 24//86 25//89 26//92 27//95 28//98 29//101 30//104 31//107 32//110 17//65
f 33//116 49//179 64//224 48//176
f 34//119 50//181 49//178 33//115
f 35//123 51//184 50//182 34//120
f 36//127 52//187 51//185 35//124
f 37//131 53//190 52//188 36//128
f 38//135 54//193 53//191 37//132
f 39//139 55//196 54//194 38//136
f 40//143 56//199 55//197 39//140
f 41//147 57//202 56//200 40//144
f 42//151 58//205 57//203 41//148
f 43//155 59//208 58//206 42//152
f 44//159 60//211 59//209 43//156
f 45//163 61//214 60//212 44//160
f 46//167 62//217 61//215 45//164
f 47//171 63//220 62//218 46//168
f 48//175 64//223 63//221 47//172
f 50//180 51//183 52//186 53//189 54//192 55//195 56//198 57//201 58//204 59//207 60//210 61//213 62//216 63//219 64//222 49//177
o torus4
#36 vertices, 34 faces
v 1.40564502 1.91274441 -5.7395378e-2
v -1.40564502 1.91274441 -5.7395378e-2
v -1.29864666 1.66068502 -0.73843512
v -0.99394113 1.44699939 -1.31579273
v -0.53791706 1.30421922 -1.70157075
v -2.6560576e-16 1.25408149 -1.83703798
v 0.53791706 1.30421922 -1.70157075
v 0.99394113 1.44699939 -1.31579273
v 1.29864666 1.66068502 -0.73843512
v 1.35764502 1.95963583 -7.4750345e-2
v -1.35764502 1.95963583 -7.4750345e-2
v -1.25430045 1.71618377 -0.73253392
v -0.96000000 1.50979508 -1.29017591
v -0.51954826 1.37189057 -1.66278038
v -2.5678859e-16 1.32346495 -1.79362166
v 0.51954826 1.37189057 -1.66278038
v 0.96000000 1.50979508 -1.29017591
v 1.25430045 1.71618377 -0.73253392
v 1.30964502 1.91274441 -5.7395378e-2
v -1.30964502 1.91274441 -5.7395378e-2
v -1.20995423 1.67789968 -0.69192279
v -0.92605887 1.47880794 -1.22984916
v -0.50117945 1.34577909 -1.58928007
v -2.4797143e-16 1.29906557 -1.71549542
v 0.50117945 1.34577909 -1.58928007
v 0.92605887 1.47880794 -1.22984916
v 1.20995423 1.67789968 -0.69192279
v 1.35764502 1.86585299 -4.0040411e-2
v -1.35764502 1.86585299 -4.0040411e-2
v -1.25430045 1.62240093 -0.69782399
v -0.96000000 1.41601225 -1.25546598
v -0.51954826 1.27810774 -1.62807044
v -2.5678859e-16 1.22968211 -1.75891173
v 0.51954826 1.27810774 -1.62807044
v 0.96000000 1.41601225 -1.25546598
v 1.25430045 1.62240093 -0.69782399
vn 0.87633772 0.16719678 0.45174930
vn -0.87633772 0.16719678 0.45174930
vn -0.95522639 -0.10269832 -0.27748080
vn -0.80059658 -0.20798322 -0.56195026
vn -0.48383245 -0.30376768 -0.82075049
vn 6.9062776e-17 -0.34709934 -0.93782837
vn 0.48383245 -0.30376768 -0.82075049
vn 0.80059658 -0.20798322 -0.56195026
vn 0.95522639 -0.10269832 -0.27748080
vn -6.5228628e-17 0.96282514 0.27012542
vn 1.9568589e-15 0.96282514 0.27012542
vn 1.1490815e-15 0.93782837 -0.34709934
vn -7.5903580e-17 0.93782837 -0.34709934
vn 2.1745840e-16 0.93782837 -0.34709934
vn -3.5526120e-17 0.93782837 -0.34709934
vn -3.8055220e-16 0.93782837 -0.34709934
vn 4.9337327e-16 0.93782837 -0.34709934
vn 6.3397599e-16 0.93782837 -0.34709934
vn -0.76406333 0.22392810 0.60503177
vn 0.76406333 0.22392810 0.60503177
vn 0.95522639 0.10269832 0.27748080
vn 0.80059658 0.20798322 0.56195026
vn 0.48383245 0.30376768 0.82075049
vn -1.3812555e-16 0.34709934 0.93782837
vn -0.48383245 0.30376768 0.82075049
vn -0.80059658 0.20798322 0.56195026
vn -0.95522639 0.10269832 0.27748080
vn 0.0000000e+0 -0.55496450 0.83187403
vn 6.5228628e-16 -0.55496450 0.83187403
vn 7.9246998e-17 -0.93782837 0.34709934
vn -1.1385537e-16 -0.93782837 0.34709934
vn 4.8022064e-16 -0.93782837 0.34709934
vn -1.7763060e-17 -0.93782837 0.34709934
vn -9.7856281e-16 -0.93782837 0.34709934
vn -1.7078306e-15 -0.93782837 0.34709934
vn -1.1094580e-15 -0.93782837 0.34709934
g torus4_metal
usemtl metal
f 65//225 92//252 100//260 73//233
f 66//226 75//235 76//236 67//227
f 66//226 93//253 84//244 75//235
f 67//227 76//236 77//237 68//228
f 67//227 94//254 93//253 66//226
f 68//228 77//237 78//238 69//229
f 68//228 95//255 94//254 67//227
f 69//229 78//238 79//239 70//230
f 69//229 96//256 95//255 68//228
f 70//230 79//239 80//240 71//231
f 70//230 97//257 96//256 69//229
f 71//231 80//240 81//241 72//232
f 71//231 98//258 97//257 70//230
f 72//232 81//241 82//242 73//233
f 72//232 99//259 98//258 71//231
f 73//233 82//242 74//234 65//225
f 73//233 100//260 99//259 72//232
f 74//234 83//243 92//252 65//225
f 75//235 84//244 85//245 76//236
f 76//236 85//245 86//246 77//237
f 77//237 86//246 87//247 78//238
f 78//238 87//247 88//248 79//239
f 79//239 88//248 89//249 80//240
f 80//240 89//249 90//250 81//241
f 81//241 90//250 91//251 82//242
f 82//242 91//251 83//243 74//234
f 84//244 93//253 94//254 85//245
f 85//245 94//254 95//255 86//246
f 86//246 95//255 96//256 87//247
f 87//247 96//256 97//257 88//248
f 88//248 97//257 98//258 89//249
f 89//249 98//258 99//259 90//250
f 90//250 99//259 100//260 91//251
f 91//251 100//260 92//252 83//243
