# Exported from Wings 3D 0.98.29b
mtllib hole.mtl
o sphere1_cut2
#65 vertices, 65 faces
v 0.76536686 0.18759598 0.0000000e+0
v 0.70710678 0.18759598 0.29289322
v 0.54119610 0.18759598 0.54119610
v 0.29289322 0.18759598 0.70710678
v 9.0688249e-17 0.18759598 0.76536686
v -0.29289322 0.18759598 0.70710678
v -0.54119610 0.18759598 0.54119610
v -0.70710678 0.18759598 0.29289322
v -0.76536686 0.18759598 0.0000000e+0
v -0.70710678 0.18759598 -0.29289322
v -0.54119610 0.18759598 -0.54119610
v -0.29289322 0.18759598 -0.70710678
v -9.6766376e-17 0.18759598 -0.76536686
v 0.29289322 0.18759598 -0.70710678
v 0.54119610 0.18759598 -0.54119610
v 0.70710678 0.18759598 -0.29289322
v 1.41421356 0.22348850 0.0000000e+0
v 1.30656296 0.22348850 0.54119610
v 1.00000000 0.22348850 1.00000000
v 0.54119610 0.22348850 1.30656296
v 1.3041734e-16 0.22348850 1.41421356
v -0.54119610 0.22348850 1.30656296
v -1.00000000 0.22348850 1.00000000
v -1.30656296 0.22348850 0.54119610
v -1.41421356 0.22348850 2.2204460e-16
v -1.30656296 0.22348850 -0.54119610
v -1.00000000 0.22348850 -1.00000000
v -0.54119610 0.22348850 -1.30656296
v -2.1595364e-16 0.22348850 -1.41421356
v 0.54119610 0.22348850 -1.30656296
v 1.00000000 0.22348850 -1.00000000
v 1.30656296 0.22348850 -0.54119610
v 1.84775907 0.38268343 0.0000000e+0
v 1.70710678 0.38268343 0.70710678
v 1.30656296 0.38268343 1.30656296
v 0.70710678 0.38268343 1.70710678
v 1.5696347e-16 0.38268343 1.84775907
v -0.70710678 0.38268343 1.70710678
v -1.30656296 0.38268343 1.30656296
v -1.70710678 0.38268343 0.70710678
v -1.84775907 0.38268343 2.2204460e-16
v -1.70710678 0.38268343 -0.70710678
v -1.30656296 0.38268343 -1.30656296
v -0.70710678 0.38268343 -1.70710678
v -2.9559203e-16 0.38268343 -1.84775907
v 0.70710678 0.38268343 -1.70710678
v 1.30656296 0.38268343 -1.30656296
v 1.70710678 0.38268343 -0.70710678
v 2.00000000 6.1230318e-17 0.0000000e+0
v 1.84775907 6.1230318e-17 0.76536686
v 1.41421356 6.1230318e-17 1.41421356
v 0.76536686 6.1230318e-17 1.84775907
v 1.6628523e-16 6.1230318e-17 2.00000000
v -0.76536686 6.1230318e-17 1.84775907
v -1.41421356 6.1230318e-17 1.41421356
v -1.84775907 6.1230318e-17 0.76536686
v -2.00000000 6.1230318e-17 2.2204460e-16
v -1.84775907 6.1230318e-17 -0.76536686
v -1.41421356 6.1230318e-17 -1.41421356
v -0.76536686 6.1230318e-17 -1.84775907
v -3.2355731e-16 6.1230318e-17 -2.00000000
v 0.76536686 6.1230318e-17 -1.84775907
v 1.41421356 6.1230318e-17 -1.41421356
v 1.84775907 6.1230318e-17 -0.76536686
v 4.3824593e-17 0.12927889 0.0000000e+0
vn -6.5607111e-2 0.99784553 2.7325755e-17
vn -6.0613067e-2 0.99784553 -2.5106754e-2
vn -4.6391233e-2 0.99784553 -4.6391233e-2
vn -2.5106754e-2 0.99784553 -6.0613067e-2
vn 0.0000000e+0 0.99784553 -6.5607111e-2
vn 2.5106754e-2 0.99784553 -6.0613067e-2
vn 4.6391233e-2 0.99784553 -4.6391233e-2
vn 6.0613067e-2 0.99784553 -2.5106754e-2
vn 6.5607111e-2 0.99784553 -6.5061321e-18
vn 6.0613067e-2 0.99784553 2.5106754e-2
vn 4.6391233e-2 0.99784553 4.6391233e-2
vn 2.5106754e-2 0.99784553 6.0613067e-2
vn 1.2578522e-17 0.99784553 6.5607111e-2
vn -2.5106754e-2 0.99784553 6.0613067e-2
vn -4.6391233e-2 0.99784553 4.6391233e-2
vn -6.0613067e-2 0.99784553 2.5106754e-2
vn -0.20201437 0.97938256 1.7560914e-17
vn -0.18663694 0.97938256 -7.7307552e-2
vn -0.14284573 0.97938256 -0.14284573
vn -7.7307552e-2 0.97938256 -0.18663694
vn -7.0243657e-18 0.97938256 -0.20201437
vn 7.7307552e-2 0.97938256 -0.18663694
vn 0.14284573 0.97938256 -0.14284573
vn 0.18663694 0.97938256 -7.7307552e-2
vn 0.20201437 0.97938256 -6.3219291e-17
vn 0.18663694 0.97938256 7.7307552e-2
vn 0.14284573 0.97938256 0.14284573
vn 7.7307552e-2 0.97938256 0.18663694
vn 1.0536549e-17 0.97938256 0.20201437
vn -7.7307552e-2 0.97938256 0.18663694
vn -0.14284573 0.97938256 0.14284573
vn -0.18663694 0.97938256 7.7307552e-2
vn 0.40144571 0.91588282 -1.3688056e-16
vn 0.37088748 0.91588282 0.15362662
vn 0.28386498 0.91588282 0.28386498
vn 0.15362662 0.91588282 0.37088748
vn 0.0000000e+0 0.91588282 0.40144571
vn -0.15362662 0.91588282 0.37088748
vn -0.28386498 0.91588282 0.28386498
vn -0.37088748 0.91588282 0.15362662
vn -0.40144571 0.91588282 -4.8885915e-17
vn -0.37088748 0.91588282 -0.15362662
vn -0.28386498 0.91588282 -0.28386498
vn -0.15362662 0.91588282 -0.37088748
vn -7.8217464e-17 0.91588282 -0.40144571
vn 0.15362662 0.91588282 -0.37088748
vn 0.28386498 0.91588282 -0.28386498
vn 0.37088748 0.91588282 -0.15362662
vn 0.98902287 -0.14776250 -2.4035008e-16
vn 0.91373799 -0.14776250 0.37848267
vn 0.69934478 -0.14776250 0.69934478
vn 0.37848267 -0.14776250 0.91373799
vn 1.5021880e-17 -0.14776250 0.98902287
vn -0.37848267 -0.14776250 0.91373799
vn -0.69934478 -0.14776250 0.69934478
vn -0.91373799 -0.14776250 0.37848267
vn -0.98902287 -0.14776250 4.5065640e-17
vn -0.91373799 -0.14776250 -0.37848267
vn -0.69934478 -0.14776250 -0.69934478
vn -0.37848267 -0.14776250 -0.91373799
vn -1.3519692e-16 -0.14776250 -0.98902287
vn 0.37848267 -0.14776250 -0.91373799
vn 0.69934478 -0.14776250 -0.69934478
vn 0.91373799 -0.14776250 -0.37848267
vn 4.3498761e-18 1.00000000 -1.7399505e-18
g sphere1_cut2_dirt
usemtl dirt
f 1//1 17//17 32//32 16//16
f 1//1 65//65 2//2
f 2//2 18//18 17//17 1//1
f 2//2 65//65 3//3
f 3//3 19//19 18//18 2//2
f 3//3 65//65 4//4
f 4//4 20//20 19//19 3//3
f 4//4 65//65 5//5
f 5//5 21//21 20//20 4//4
f 5//5 65//65 6//6
f 6//6 22//22 21//21 5//5
f 6//6 65//65 7//7
f 7//7 23//23 22//22 6//6
f 7//7 65//65 8//8
f 8//8 24//24 23//23 7//7
f 8//8 65//65 9//9
f 9//9 25//25 24//24 8//8
f 9//9 65//65 10//10
f 10//10 26//26 25//25 9//9
f 10//10 65//65 11//11
f 11//11 27//27 26//26 10//10
f 11//11 65//65 12//12
f 12//12 28//28 27//27 11//11
f 12//12 65//65 13//13
f 13//13 29//29 28//28 12//12
f 13//13 65//65 14//14
f 14//14 30//30 29//29 13//13
f 14//14 65//65 15//15
f 15//15 31//31 30//30 14//14
f 15//15 65//65 16//16
f 16//16 32//32 31//31 15//15
f 16//16 65//65 1//1
f 17//17 33//33 48//48 32//32
f 18//18 34//34 33//33 17//17
f 19//19 35//35 34//34 18//18
f 20//20 36//36 35//35 19//19
f 21//21 37//37 36//36 20//20
f 22//22 38//38 37//37 21//21
f 23//23 39//39 38//38 22//22
f 24//24 40//40 39//39 23//23
f 25//25 41//41 40//40 24//24
f 26//26 42//42 41//41 25//25
f 27//27 43//43 42//42 26//26
f 28//28 44//44 43//43 27//27
f 29//29 45//45 44//44 28//28
f 30//30 46//46 45//45 29//29
f 31//31 47//47 46//46 30//30
f 32//32 48//48 47//47 31//31
f 33//33 49//49 64//64 48//48
f 34//34 50//50 49//49 33//33
f 35//35 51//51 50//50 34//34
f 36//36 52//52 51//51 35//35
f 37//37 53//53 52//52 36//36
f 38//38 54//54 53//53 37//37
f 39//39 55//55 54//54 38//38
f 40//40 56//56 55//55 39//39
f 41//41 57//57 56//56 40//40
f 42//42 58//58 57//57 41//41
f 43//43 59//59 58//58 42//42
f 44//44 60//60 59//59 43//43
f 45//45 61//61 60//60 44//44
f 46//46 62//62 61//61 45//45
f 47//47 63//63 62//62 46//46
f 48//48 64//64 63//63 47//47
f 50//50 51//51 52//52 53//53 54//54 55//55 56//56 57//57 58//58 59//59 60//60 61//61 62//62 63//63 64//64 49//49
