# Exported from Wings 3D 0.98.29b
mtllib lettuce-eat3.mtl
o sphere1
#136 vertices, 128 faces
v 0.38268343 1.22248454 0.0000000e+0
v 0.35355339 1.22248454 0.14644661
v 0.27059805 1.22248454 0.27059805
v 0.14644661 1.22248454 0.35355339
v 2.3431828e-17 1.22248454 0.38268343
v -0.14644661 1.22248454 0.35355339
v -0.27059805 1.22248454 0.27059805
v -0.35355339 1.22248454 0.14644661
v -0.38268343 1.22248454 4.6863656e-17
v -0.35355339 1.22248454 -0.14644661
v -0.27059805 1.22248454 -0.27059805
v -0.14644661 1.22248454 -0.35355339
v -7.0295484e-17 1.22248454 -0.38268343
v 0.14644661 1.22248454 -0.35355339
v 0.27059805 1.22248454 -0.27059805
v 0.35355339 1.22248454 -0.14644661
v 0.50000000 1.07984807 0.50000000
v 0.27059805 1.07984807 0.65328148
v 4.3296373e-17 1.07984807 0.70710678
v -0.27059805 1.07984807 0.65328148
v -0.50000000 1.07984807 0.50000000
v -0.65328148 1.07984807 0.27059805
v -0.70710678 1.07984807 8.6592746e-17
v -0.65328148 1.07984807 -0.27059805
v -0.50000000 1.07984807 -0.50000000
v -0.27059805 1.07984807 -0.65328148
v -1.2988912e-16 1.07984807 -0.70710678
v 0.27059805 1.07984807 -0.65328148
v -0.92387953 0.86637751 1.1313887e-16
v 1.00000000 0.61457181 0.0000000e+0
v 0.92387953 0.61457181 0.38268343
v 0.70710678 0.61457181 0.60461595
v 0.38268343 0.61457181 0.82138870
v 6.1230318e-17 0.61457181 0.89750917
v -0.38268343 0.61457181 0.82138870
v -0.70710678 0.61457181 0.60461595
v -0.92387953 0.61457181 0.38268343
v -1.00000000 0.61457181 1.2246064e-16
v -0.92387953 0.61457181 -0.38268343
v -0.70710678 0.61457181 -0.48594236
v -0.38268343 0.61457181 -0.70271511
v -1.8369095e-16 0.61457181 -0.77883558
v 0.38268343 0.61457181 -0.70271511
v 0.70710678 0.61457181 -0.70710678
v 0.92387953 0.61457181 -0.38268343
v 0.92387953 0.36276611 0.0000000e+0
v 0.85355339 0.36276611 0.35355339
v 0.65328148 0.36276611 0.65328148
v 0.35355339 0.36276611 0.85355339
v 5.6569437e-17 0.36276611 0.92387953
v -0.35355339 0.36276611 0.85355339
v -0.65328148 0.36276611 0.65328148
v -0.85355339 0.36276611 0.35355339
v -0.92387953 0.36276611 1.1313887e-16
v -0.85355339 0.36276611 -0.35355339
v -0.65328148 0.36276611 -0.65328148
v -0.35355339 0.36276611 -0.85355339
v -1.6970831e-16 0.36276611 -0.92387953
v 0.35355339 0.36276611 -0.85355339
v 0.65328148 0.36276611 -0.65328148
v 0.85355339 0.36276611 -0.35355339
v 0.70710678 0.14929555 0.0000000e+0
v 0.65328148 0.14929555 0.27059805
v 0.50000000 0.14929555 0.50000000
v 0.27059805 0.14929555 0.65328148
v 4.3296373e-17 0.14929555 0.70710678
v -0.27059805 0.14929555 0.65328148
v -0.50000000 0.14929555 0.50000000
v -0.65328148 0.14929555 0.27059805
v -0.70710678 0.14929555 8.6592746e-17
v -0.65328148 0.14929555 -0.27059805
v -0.50000000 0.14929555 -0.50000000
v -0.27059805 0.14929555 -0.65328148
v -1.2988912e-16 0.14929555 -0.70710678
v 0.27059805 0.14929555 -0.65328148
v 0.50000000 0.14929555 -0.50000000
v 0.65328148 0.14929555 -0.27059805
v 0.38268343 6.6590800e-3 0.0000000e+0
v 0.35355339 6.6590800e-3 0.14644661
v 0.27059805 6.6590800e-3 0.27059805
v 0.14644661 6.6590800e-3 0.35355339
v 2.3431828e-17 6.6590800e-3 0.38268343
v -0.14644661 6.6590800e-3 0.35355339
v -0.27059805 6.6590800e-3 0.27059805
v -0.35355339 6.6590800e-3 0.14644661
v -0.38268343 6.6590800e-3 4.6863656e-17
v -0.35355339 6.6590800e-3 -0.14644661
v -0.27059805 6.6590800e-3 -0.27059805
v -0.14644661 6.6590800e-3 -0.35355339
v -7.0295484e-17 6.6590800e-3 -0.38268343
v 0.14644661 6.6590800e-3 -0.35355339
v 0.27059805 6.6590800e-3 -0.27059805
v 0.35355339 6.6590800e-3 -0.14644661
v 0.20852233 1.15116631 0.50341744
v 3.3364100e-17 1.15116631 0.54489511
v -0.20852233 1.15116631 0.50341744
v -0.38529903 1.15116631 0.38529903
v -0.50341744 1.15116631 0.20852233
v -0.54489511 1.15116631 6.6728201e-17
v -0.50341744 1.15116631 -0.20852233
v -0.38529903 1.15116631 -0.38529903
v -0.20852233 1.15116631 -0.50341744
v -6.7439886e-2 1.91875641 0.41479766
v -0.21388650 1.91875641 0.38566762
v -0.33803794 1.91875641 0.30271228
v -0.42099328 1.91875641 0.17856084
v -0.45012332 1.91875641 3.2114231e-2
v -0.42099328 1.91875641 -0.11433238
v -0.33803794 1.91875641 -0.23848382
v -6.7439886e-2 1.59954434 0.57700934
v -0.27596222 1.59954434 0.53553167
v -0.45273891 1.59954434 0.41741326
v -0.57085732 1.59954434 0.24063656
v -0.61233499 1.59954434 3.2114231e-2
v -0.57085732 1.59954434 -0.17640810
v -0.45273891 1.59954434 -0.35318479
v 0.14108244 1.59954434 0.53553167
v 7.9006723e-2 1.91875641 0.38566762
v -0.21388650 1.91875641 -0.32143916
v -0.27596222 1.59954434 -0.47130321
v 0.11114022 1.97369743 4.6035785e-2
v 0.12029730 1.97369743 2.8411205e-17
v 0.11114022 1.97369743 -4.6035785e-2
v 8.5063038e-2 1.97369743 -8.5063038e-2
v 4.6035785e-2 1.97369743 -0.11114022
v -1.3261706e-17 1.97369743 -0.12029730
v -4.6035785e-2 1.97369743 -0.11114022
v -8.5063038e-2 1.97369743 -8.5063038e-2
v -0.11114022 1.97369743 -4.6035785e-2
v -0.12029730 1.97369743 2.4110120e-17
v -0.11114022 1.97369743 4.6035785e-2
v -8.5063038e-2 1.97369743 8.5063038e-2
v -4.6035785e-2 1.97369743 0.11114022
v 1.6184995e-17 1.97369743 0.12029730
v 4.6035785e-2 1.97369743 0.11114022
v 8.5063038e-2 1.97369743 8.5063038e-2
vn 0.91311427 0.40765304 -6.4294479e-3
vn 0.75029653 0.60765645 0.26040115
vn 0.51768171 0.68118375 0.51768171
vn 0.66650763 0.66941343 0.32810553
vn -4.4564998e-4 0.99031810 -0.13881591
vn 4.6623365e-2 0.99239485 -0.11392423
vn 7.9756210e-2 0.99358289 -8.0199650e-2
vn 0.10192420 0.99389823 -4.2163623e-2
vn 0.11508147 0.99335598 3.9035414e-4
vn 0.11690773 0.99193316 4.9001984e-2
vn 0.10130190 0.98963072 0.10182812
vn 0.23921592 0.66725028 -0.70537423
vn -2.1787268e-16 0.68118375 -0.73211249
vn 0.28016732 0.68118375 -0.67638375
vn 0.69144237 0.52738977 -0.49372815
vn 0.90770897 -0.18627782 -0.37598537
vn 0.53255109 0.72744926 0.43267414
vn 0.27092088 0.70487562 0.65555491
vn -7.5586174e-18 0.69987673 0.71426365
vn -0.27092088 0.70487562 0.65555491
vn -0.47029425 0.72351931 0.50531488
vn -0.60570791 0.74332533 0.28387565
vn -0.56082373 0.82793523 6.3904519e-17
vn -0.60079009 0.73464023 -0.31520627
vn -0.47596849 0.67029496 -0.56934933
vn -0.29776547 0.62604162 -0.72069939
vn -1.7205348e-16 0.61239857 -0.79054917
vn 0.27967261 0.65424794 -0.70266839
vn -0.84500733 0.53475472 1.3648682e-16
vn 0.96690323 0.25462351 -1.6279168e-2
vn 0.87307330 0.31783133 0.36976514
vn 0.64670976 0.18342720 0.74035191
vn 0.37156516 0.23609883 0.89788455
vn -1.4272591e-17 0.24407897 0.96975536
vn -0.37156516 0.23609883 0.89788455
vn -0.65936875 0.19736679 0.72545103
vn -0.89211563 0.18380034 0.41273132
vn -1.00000000 2.9516988e-17 1.5496418e-16
vn -0.86200036 0.20604341 -0.46314306
vn -0.59985485 0.26133191 -0.75622734
vn -0.36375512 0.32299234 -0.87370370
vn -1.1485893e-16 0.33177293 -0.94335928
vn 0.16487651 0.22383736 -0.96057929
vn 0.57114328 0.32289889 -0.75467322
vn 0.88686030 0.25295097 -0.38664533
vn 0.85545925 -0.51787013 -1.4519971e-16
vn 0.79427848 -0.49376240 0.35400621
vn 0.62618534 -0.41656488 0.65906419
vn 0.35808717 -0.35424279 0.86387825
vn 0.0000000e+0 -0.33976123 0.94051172
vn -0.35808717 -0.35424279 0.86387825
vn -0.62618534 -0.41656488 0.65906419
vn -0.79427848 -0.49376240 0.35400621
vn -0.85545925 -0.51787013 1.3793972e-16
vn -0.79814964 -0.45650971 -0.39313616
vn -0.63583544 -0.28703983 -0.71646453
vn -0.38016573 -0.16365715 -0.91032431
vn -1.1538618e-16 -0.13673687 -0.99060740
vn 0.29937942 -0.23572555 -0.92455688
vn 0.58022431 -0.43651065 -0.68760323
vn 0.79034129 -0.51787013 -0.32737008
vn 0.56082373 -0.82793523 -4.9703515e-17
vn 0.51813356 -0.82793523 0.21461795
vn 0.39656226 -0.82793523 0.39656226
vn 0.21461795 -0.82793523 0.51813356
vn 7.1005021e-18 -0.82793523 0.56082373
vn -0.21461795 -0.82793523 0.51813356
vn -0.39656226 -0.82793523 0.39656226
vn -0.51813356 -0.82793523 0.21461795
vn -0.56082373 -0.82793523 1.2070854e-16
vn -0.51813356 -0.82793523 -0.21461795
vn -0.39656226 -0.82793523 -0.39656226
vn -0.21461795 -0.82793523 -0.51813356
vn -2.1301506e-17 -0.82793523 -0.56082373
vn 0.21461795 -0.82793523 -0.51813356
vn 0.39656226 -0.82793523 -0.39656226
vn 0.51813356 -0.82793523 -0.21461795
vn 0.27322305 -0.96195071 9.6775310e-18
vn 0.25242518 -0.96195071 0.10455793
vn 0.19319787 -0.96195071 0.19319787
vn 0.10455793 -0.96195071 0.25242518
vn 9.4510846e-18 -0.96195071 0.27322305
vn -0.10455793 -0.96195071 0.25242518
vn -0.19319787 -0.96195071 0.19319787
vn -0.25242518 -0.96195071 0.10455793
vn -0.27322305 -0.96195071 6.6384039e-17
vn -0.25242518 -0.96195071 -0.10455793
vn -0.19319787 -0.96195071 -0.19319787
vn -0.10455793 -0.96195071 -0.25242518
vn -1.8902169e-17 -0.96195071 -0.27322305
vn 0.10455793 -0.96195071 -0.25242518
vn 0.19319787 -0.96195071 -0.19319787
vn 0.25242518 -0.96195071 -0.10455793
vn 0.51788977 0.67509630 0.52539049
vn 2.4667827e-4 0.52131788 0.85336253
vn -0.33127821 0.49928429 0.80060599
vn -0.61818044 0.48513319 0.61846482
vn -0.80992473 0.48114218 0.33544617
vn -0.87287713 0.48794001 -2.4775232e-4
vn -0.79759295 0.50445173 -0.33071730
vn -0.60036511 0.52800021 -0.60064758
vn -5.9125219e-3 0.67827023 -0.73478877
vn -3.3122203e-4 0.97919198 -0.20293586
vn 7.1312228e-2 0.98230157 -0.17319986
vn 0.12524475 0.98414532 -0.12558562
vn 0.16129715 0.98464466 -6.6769235e-2
vn 0.17933091 0.98378877 2.9936577e-4
vn 0.17626359 0.98159904 7.3447024e-2
vn 0.14668684 0.97818806 0.14707513
vn 2.1054666e-4 0.19861852 0.98007685
vn -0.37664778 0.17326608 0.91000842
vn -0.69820298 0.15713802 0.69844129
vn -0.91306809 0.15261078 0.37817539
vn -0.98706384 0.16032755 -2.0790732e-4
vn -0.90882406 0.17918525 -0.37673793
vn -0.69176512 0.20636688 -0.69200703
vn 0.61525777 0.24543040 0.74914738
vn 0.80827902 0.51325992 -0.28852952
vn 0.77767498 0.50780435 -0.37061621
vn -9.5192139e-2 0.25328864 -0.96269586
vn 0.69076512 0.66406058 0.28612428
vn 0.74767878 0.66406058 8.0517363e-16
vn 0.69076512 0.66406058 -0.28612428
vn 0.52868873 0.66406058 -0.52868873
vn 0.28612428 0.66406058 -0.69076512
vn -1.2301264e-16 0.66406058 -0.74767878
vn -0.28612428 0.66406058 -0.69076512
vn -0.52868873 0.66406058 -0.52868873
vn -0.69076512 0.66406058 -0.28612428
vn -0.74767878 0.66406058 9.3936924e-16
vn -0.69076512 0.66406058 0.28612428
vn -0.52868873 0.66406058 0.52868873
vn -0.28612428 0.66406058 0.69076512
vn 0.0000000e+0 0.66406058 0.74767878
vn 0.28612428 0.66406058 0.69076512
vn 0.52868873 0.66406058 0.52868873
g sphere1_lettuce
usemtl lettuce
f 1//1 15//15 16//16
f 1//1 122//122 121//121 2//2
f 2//2 17//17 31//31 1//1
f 2//2 121//121 136//136 3//3
f 3//3 17//17 2//2
f 3//3 136//136 135//135 4//4
f 4//4 94//94 18//18 17//17 3//3
f 4//4 118//118 117//117 94//94
f 4//4 135//135 134//134 5//5
f 5//5 103//103 118//118 4//4
f 5//5 134//134 133//133 6//6
f 6//6 104//104 103//103 5//5
f 6//6 133//133 132//132 7//7
f 7//7 105//105 104//104 6//6
f 7//7 132//132 131//131 8//8
f 8//8 106//106 105//105 7//7
f 8//8 131//131 130//130 9//9
f 9//9 107//107 106//106 8//8
f 9//9 130//130 129//129 10//10
f 10//10 108//108 107//107 9//9
f 10//10 129//129 128//128 11//11
f 11//11 109//109 108//108 10//10
f 11//11 128//128 127//127 12//12
f 12//12 119//119 109//109 11//11
f 12//12 127//127 126//126 13//13
f 13//13 27//27 26//26 102//102 12//12
f 13//13 126//126 125//125 14//14
f 14//14 28//28 27//27 13//13
f 14//14 125//125 124//124 15//15
f 15//15 28//28 14//14
f 15//15 124//124 123//123 16//16
f 16//16 123//123 122//122 1//1
f 18//18 33//33 32//32 17//17
f 18//18 94//94 95//95 19//19
f 19//19 34//34 33//33 18//18
f 19//19 95//95 96//96 20//20
f 20//20 35//35 34//34 19//19
f 20//20 96//96 97//97 21//21
f 21//21 36//36 35//35 20//20
f 21//21 97//97 98//98 22//22
f 22//22 37//37 36//36 21//21
f 22//22 98//98 99//99 23//23
f 23//23 29//29 22//22
f 23//23 99//99 100//100 24//24
f 24//24 29//29 23//23
f 24//24 39//39 29//29
f 24//24 100//100 101//101 25//25
f 25//25 40//40 39//39 24//24
f 25//25 101//101 102//102 26//26
f 26//26 41//41 40//40 25//25
f 27//27 42//42 41//41 26//26
f 28//28 15//15 44//44
f 28//28 43//43 42//42 27//27
f 30//30 1//1 31//31
f 30//30 46//46 61//61 45//45
f 31//31 17//17 32//32
f 31//31 47//47 46//46 30//30
f 32//32 48//48 47//47 31//31
f 33//33 49//49 48//48 32//32
f 34//34 50//50 49//49 33//33
f 35//35 51//51 50//50 34//34
f 36//36 52//52 51//51 35//35
f 37//37 22//22 29//29
f 37//37 29//29 38//38
f 37//37 53//53 52//52 36//36
f 38//38 29//29 39//39
f 38//38 54//54 53//53 37//37
f 39//39 55//55 54//54 38//38
f 40//40 56//56 55//55 39//39
f 41//41 57//57 56//56 40//40
f 42//42 58//58 57//57 41//41
f 43//43 28//28 44//44
f 43//43 59//59 58//58 42//42
f 44//44 15//15 45//45
f 44//44 60//60 59//59 43//43
f 45//45 15//15 1//1 30//30
f 45//45 61//61 60//60 44//44
f 46//46 62//62 77//77 61//61
f 47//47 63//63 62//62 46//46
f 48//48 64//64 63//63 47//47
f 49//49 65//65 64//64 48//48
f 50//50 66//66 65//65 49//49
f 51//51 67//67 66//66 50//50
f 52//52 68//68 67//67 51//51
f 53//53 69//69 68//68 52//52
f 54//54 70//70 69//69 53//53
f 55//55 71//71 70//70 54//54
f 56//56 72//72 71//71 55//55
f 57//57 73//73 72//72 56//56
f 58//58 74//74 73//73 57//57
f 59//59 75//75 74//74 58//58
f 60//60 76//76 75//75 59//59
f 61//61 77//77 76//76 60//60
f 62//62 78//78 93//93 77//77
f 63//63 79//79 78//78 62//62
f 64//64 80//80 79//79 63//63
f 65//65 81//81 80//80 64//64
f 66//66 82//82 81//81 65//65
f 67//67 83//83 82//82 66//66
f 68//68 84//84 83//83 67//67
f 69//69 85//85 84//84 68//68
f 70//70 86//86 85//85 69//69
f 71//71 87//87 86//86 70//70
f 72//72 88//88 87//87 71//71
f 73//73 89//89 88//88 72//72
f 74//74 90//90 89//89 73//73
f 75//75 91//91 90//90 74//74
f 76//76 92//92 91//91 75//75
f 77//77 93//93 92//92 76//76
f 79//79 80//80 81//81 82//82 83//83 84//84 85//85 86//86 87//87 88//88 89//89 90//90 91//91 92//92 93//93 78//78
f 94//94 117//117 110//110 95//95
f 95//95 110//110 111//111 96//96
f 96//96 111//111 112//112 97//97
f 97//97 112//112 113//113 98//98
f 98//98 113//113 114//114 99//99
f 99//99 114//114 115//115 100//100
f 100//100 115//115 116//116 101//101
f 101//101 116//116 120//120 102//102
f 102//102 120//120 119//119 12//12
f 103//103 104//104 111//111 110//110
f 104//104 105//105 112//112 111//111
f 105//105 106//106 113//113 112//112
f 106//106 107//107 114//114 113//113
f 107//107 108//108 115//115 114//114
f 108//108 109//109 116//116 115//115
f 109//109 119//119 120//120 116//116
f 110//110 117//117 118//118 103//103
f 122//122 123//123 124//124 125//125 126//126 127//127 128//128 129//129 130//130 131//131 132//132 133//133 134//134 135//135 136//136 121//121
