# Exported from Wings 3D 0.98.29b
mtllib lettuce-eat2.mtl
o sphere1
#181 vertices, 168 faces
v 0.38268343 1.22248454 0.0000000e+0
v 0.35355339 1.22248454 0.14644661
v 0.27059805 1.22248454 0.27059805
v 0.14644661 1.22248454 0.35355339
v 2.3431828e-17 1.22248454 0.38268343
v -0.14644661 1.22248454 0.35355339
v -0.27059805 1.22248454 0.27059805
v -0.35355339 1.22248454 0.14644661
v -0.38268343 1.22248454 4.6863656e-17
v -0.35355339 1.22248454 -0.14644661
v -0.27059805 1.22248454 -0.27059805
v -0.14644661 1.22248454 -0.35355339
v -7.0295484e-17 1.22248454 -0.38268343
v 0.14644661 1.22248454 -0.35355339
v 0.27059805 1.22248454 -0.27059805
v 0.35355339 1.22248454 -0.14644661
v 0.70710678 1.07984807 0.0000000e+0
v 0.65328148 1.07984807 0.27059805
v 0.50000000 1.07984807 0.50000000
v 0.27059805 1.07984807 0.65328148
v 4.3296373e-17 1.07984807 0.70710678
v -0.27059805 1.07984807 0.65328148
v -0.50000000 1.07984807 0.50000000
v -0.65328148 1.07984807 0.27059805
v -0.70710678 1.07984807 8.6592746e-17
v -0.65328148 1.07984807 -0.27059805
v -0.50000000 1.07984807 -0.50000000
v -0.27059805 1.07984807 -0.65328148
v -1.2988912e-16 1.07984807 -0.70710678
v 0.27059805 1.07984807 -0.65328148
v 0.50000000 1.07984807 -0.50000000
v 0.65328148 1.07984807 -0.27059805
v 0.92387953 0.86637751 0.0000000e+0
v -0.92387953 0.86637751 1.1313887e-16
v -0.85355339 0.86637751 -0.35355339
v -0.65328148 0.86637751 -0.65328148
v -0.35355339 0.86637751 -0.85355339
v -1.6970831e-16 0.86637751 -0.92387953
v 0.35355339 0.86637751 -0.85355339
v 0.65328148 0.86637751 -0.65328148
v 0.85355339 0.86637751 -0.35355339
v 1.00000000 0.61457181 0.0000000e+0
v 0.92387953 0.61457181 0.38268343
v 0.70710678 0.61457181 0.70710678
v 0.38268343 0.61457181 0.92387953
v 6.1230318e-17 0.61457181 1.00000000
v -0.38268343 0.61457181 0.92387953
v -0.70710678 0.61457181 0.70710678
v -0.92387953 0.61457181 0.38268343
v -1.00000000 0.61457181 1.2246064e-16
v -0.92387953 0.61457181 -0.38268343
v -0.70710678 0.61457181 -0.70710678
v -0.38268343 0.61457181 -0.92387953
v -1.8369095e-16 0.61457181 -1.00000000
v 0.38268343 0.61457181 -0.92387953
v 0.70710678 0.61457181 -0.70710678
v 0.92387953 0.61457181 -0.38268343
v 0.92387953 0.36276611 0.0000000e+0
v 0.85355339 0.36276611 0.35355339
v 0.65328148 0.36276611 0.65328148
v 0.35355339 0.36276611 0.85355339
v 5.6569437e-17 0.36276611 0.92387953
v -0.35355339 0.36276611 0.85355339
v -0.65328148 0.36276611 0.65328148
v -0.85355339 0.36276611 0.35355339
v -0.92387953 0.36276611 1.1313887e-16
v -0.85355339 0.36276611 -0.35355339
v -0.65328148 0.36276611 -0.65328148
v -0.35355339 0.36276611 -0.85355339
v -1.6970831e-16 0.36276611 -0.92387953
v 0.35355339 0.36276611 -0.85355339
v 0.65328148 0.36276611 -0.65328148
v 0.85355339 0.36276611 -0.35355339
v 0.70710678 0.14929555 0.0000000e+0
v 0.65328148 0.14929555 0.27059805
v 0.50000000 0.14929555 0.50000000
v 0.27059805 0.14929555 0.65328148
v 4.3296373e-17 0.14929555 0.70710678
v -0.27059805 0.14929555 0.65328148
v -0.50000000 0.14929555 0.50000000
v -0.65328148 0.14929555 0.27059805
v -0.70710678 0.14929555 8.6592746e-17
v -0.65328148 0.14929555 -0.27059805
v -0.50000000 0.14929555 -0.50000000
v -0.27059805 0.14929555 -0.65328148
v -1.2988912e-16 0.14929555 -0.70710678
v 0.27059805 0.14929555 -0.65328148
v 0.50000000 0.14929555 -0.50000000
v 0.65328148 0.14929555 -0.27059805
v 0.38268343 6.6590800e-3 0.0000000e+0
v 0.35355339 6.6590800e-3 0.14644661
v 0.27059805 6.6590800e-3 0.27059805
v 0.14644661 6.6590800e-3 0.35355339
v 2.3431828e-17 6.6590800e-3 0.38268343
v -0.14644661 6.6590800e-3 0.35355339
v -0.27059805 6.6590800e-3 0.27059805
v -0.35355339 6.6590800e-3 0.14644661
v -0.38268343 6.6590800e-3 4.6863656e-17
v -0.35355339 6.6590800e-3 -0.14644661
v -0.27059805 6.6590800e-3 -0.27059805
v -0.14644661 6.6590800e-3 -0.35355339
v -7.0295484e-17 6.6590800e-3 -0.38268343
v 0.14644661 6.6590800e-3 -0.35355339
v 0.27059805 6.6590800e-3 -0.27059805
v 0.35355339 6.6590800e-3 -0.14644661
v -0.46229857 1.81509627 -0.49808155
v -0.21270925 1.81509627 -0.66485181
v 8.1701432e-2 1.81509627 -0.72341373
v 0.37611211 1.81509627 -0.66485181
v -0.62906882 1.58284030 -0.66485181
v -0.30296466 1.58284030 -0.88274764
v 8.1701432e-2 1.58284030 -0.95926248
v 0.46636752 1.58284030 -0.88274764
v -0.84696466 1.58284030 -0.33874764
v -0.62906882 1.81509627 -0.24849223
v 0.62570143 1.81509627 -0.49808155
v 0.79247168 1.58284030 -0.66485181
v 0.54489511 1.15116631 0.0000000e+0
v 0.50341744 1.15116631 0.20852233
v 0.38529903 1.15116631 0.38529903
v -1.0009230e-16 1.15116631 -0.54489511
v 0.20852233 1.15116631 -0.50341744
v 0.38529903 1.15116631 -0.38529903
v 0.50341744 1.15116631 -0.20852233
v 0.51361731 2.22941901 -3.8914848e-2
v 0.48448726 2.22941901 0.10753176
v 0.27738048 2.22941901 -0.39246824
v 0.40153192 2.22941901 -0.30951290
v 0.48448726 2.22941901 -0.18536146
v 0.67582898 1.88229837 -3.8914848e-2
v 0.63435131 1.88229837 0.16960748
v 0.33945620 1.88229837 -0.54233228
v 0.51623290 1.88229837 -0.42421387
v 0.63435131 1.88229837 -0.24743718
v 0.13093387 1.88229837 -0.58380996
v 0.13093387 2.22941901 -0.42159828
v 0.40153192 2.22941901 0.23168320
v 0.51623290 1.88229837 0.34638418
v 0.20852233 1.15116631 0.50341744
v 3.3364100e-17 1.15116631 0.54489511
v -0.20852233 1.15116631 0.50341744
v -0.38529903 1.15116631 0.38529903
v -0.50341744 1.15116631 0.20852233
v -0.54489511 1.15116631 6.6728201e-17
v -0.50341744 1.15116631 -0.20852233
v -0.38529903 1.15116631 -0.38529903
v -0.20852233 1.15116631 -0.50341744
v -6.7439886e-2 1.91875641 0.41479766
v -0.21388650 1.91875641 0.38566762
v -0.33803794 1.91875641 0.30271228
v -0.42099328 1.91875641 0.17856084
v -0.45012332 1.91875641 3.2114231e-2
v -0.42099328 1.91875641 -0.11433238
v -0.33803794 1.91875641 -0.23848382
v -6.7439886e-2 1.59954434 0.57700934
v -0.27596222 1.59954434 0.53553167
v -0.45273891 1.59954434 0.41741326
v -0.57085732 1.59954434 0.24063656
v -0.61233499 1.59954434 3.2114231e-2
v -0.57085732 1.59954434 -0.17640810
v -0.45273891 1.59954434 -0.35318479
v 0.14108244 1.59954434 0.53553167
v 7.9006723e-2 1.91875641 0.38566762
v -0.21388650 1.91875641 -0.32143916
v -0.27596222 1.59954434 -0.47130321
v 0.11114022 1.97369743 4.6035785e-2
v 0.12029730 1.97369743 2.8411205e-17
v 0.11114022 1.97369743 -4.6035785e-2
v 8.5063038e-2 1.97369743 -8.5063038e-2
v 4.6035785e-2 1.97369743 -0.11114022
v -1.3261706e-17 1.97369743 -0.12029730
v -4.6035785e-2 1.97369743 -0.11114022
v -8.5063038e-2 1.97369743 -8.5063038e-2
v -0.11114022 1.97369743 -4.6035785e-2
v -0.12029730 1.97369743 2.4110120e-17
v -0.11114022 1.97369743 4.6035785e-2
v -8.5063038e-2 1.97369743 8.5063038e-2
v -4.6035785e-2 1.97369743 0.11114022
v 1.6184995e-17 1.97369743 0.12029730
v 4.6035785e-2 1.97369743 0.11114022
v 8.5063038e-2 1.97369743 8.5063038e-2
vn -9.9438262e-2 0.99504365 -4.0432761e-4
vn -0.10212837 0.99383553 -4.3136291e-2
vn 5.0341288e-2 0.68009379 0.73139469
vn 0.66650763 0.66941343 0.32810553
vn -4.4564998e-4 0.99031810 -0.13881591
vn 4.6623365e-2 0.99239485 -0.11392423
vn 7.9756210e-2 0.99358289 -8.0199650e-2
vn 0.10192420 0.99389823 -4.2163623e-2
vn 0.11508147 0.99335598 3.9035414e-4
vn 0.11690773 0.99193316 4.9001984e-2
vn 0.10130190 0.98963072 0.10182812
vn 0.23921592 0.66725028 -0.70537423
vn -0.47920071 0.67649134 -0.55921923
vn -4.5213146e-2 0.99276120 0.11126978
vn -7.3377960e-2 0.99453426 7.4278365e-2
vn -8.9727059e-2 0.99526658 3.7329373e-2
vn 0.56082373 0.82793523 -1.9171356e-16
vn 0.60792986 0.74860335 0.26460216
vn 0.46088536 0.75839922 0.46088536
vn 0.24942936 0.75839922 0.60217574
vn -1.4639725e-17 0.75839922 0.65179033
vn -0.24942936 0.75839922 0.60217574
vn -0.46088536 0.75839922 0.46088536
vn -0.60792986 0.74860335 0.26460216
vn -0.56082373 0.82793523 -3.5502511e-17
vn -0.34144157 0.86637217 0.36444055
vn 0.39006899 0.83405096 0.39013482
vn 0.20755103 0.84008130 0.50118458
vn 8.3578982e-5 0.84994420 0.52687270
vn -0.19384274 0.86181279 0.46872563
vn 0.42732611 0.87605150 0.22344165
vn 0.51813356 0.82793523 -0.21461795
vn 0.84695295 0.52657130 7.3439513e-2
vn -0.84695295 0.52657130 7.3439513e-2
vn -0.93598553 0.32922249 -0.12467417
vn -0.69882611 0.15253662 -0.69883807
vn -0.37886844 0.14112994 -0.91462618
vn -1.0822852e-4 0.12197245 -0.99253348
vn 0.38061578 9.8030440e-2 -0.91952252
vn 0.83243927 0.28122029 -0.47745158
vn 0.79034129 0.51787013 -0.32737008
vn 1.00000000 -1.7710193e-16 -1.3282644e-16
vn 0.90987410 0.16937314 0.37873718
vn 0.70067233 0.13459786 0.70067233
vn 0.37920113 0.13459786 0.91547251
vn -1.5495833e-17 0.13459786 0.99090031
vn -0.37920113 0.13459786 0.91547251
vn -0.70067233 0.13459786 0.70067233
vn -0.90987410 0.16937314 0.37873718
vn -1.00000000 -1.7710193e-16 1.1806795e-16
vn -0.92387953 -1.3282644e-16 -0.38268343
vn -0.70710678 -1.3282644e-16 -0.70710678
vn -0.38268343 -1.3282644e-16 -0.92387953
vn -1.7710193e-16 -1.4758494e-17 -1.00000000
vn 0.38268343 5.9033975e-17 -0.92387953
vn 0.70710678 -8.8550963e-17 -0.70710678
vn 0.92387953 -1.1806795e-16 -0.38268343
vn 0.85545925 -0.51787013 -1.4519971e-16
vn 0.79034129 -0.51787013 0.32737008
vn 0.60490104 -0.51787013 0.60490104
vn 0.32737008 -0.51787013 0.79034129
vn 0.0000000e+0 -0.51787013 0.85545925
vn -0.32737008 -0.51787013 0.79034129
vn -0.60490104 -0.51787013 0.60490104
vn -0.79034129 -0.51787013 0.32737008
vn -0.85545925 -0.51787013 1.3793972e-16
vn -0.79034129 -0.51787013 -0.32737008
vn -0.60490104 -0.51787013 -0.60490104
vn -0.32737008 -0.51787013 -0.79034129
vn -8.7119825e-17 -0.51787013 -0.85545925
vn 0.32737008 -0.51787013 -0.79034129
vn 0.60490104 -0.51787013 -0.60490104
vn 0.79034129 -0.51787013 -0.32737008
vn 0.56082373 -0.82793523 -4.9703515e-17
vn 0.51813356 -0.82793523 0.21461795
vn 0.39656226 -0.82793523 0.39656226
vn 0.21461795 -0.82793523 0.51813356
vn 7.1005021e-18 -0.82793523 0.56082373
vn -0.21461795 -0.82793523 0.51813356
vn -0.39656226 -0.82793523 0.39656226
vn -0.51813356 -0.82793523 0.21461795
vn -0.56082373 -0.82793523 1.2070854e-16
vn -0.51813356 -0.82793523 -0.21461795
vn -0.39656226 -0.82793523 -0.39656226
vn -0.21461795 -0.82793523 -0.51813356
vn -2.1301506e-17 -0.82793523 -0.56082373
vn 0.21461795 -0.82793523 -0.51813356
vn 0.39656226 -0.82793523 -0.39656226
vn 0.51813356 -0.82793523 -0.21461795
vn 0.27322305 -0.96195071 9.6775310e-18
vn 0.25242518 -0.96195071 0.10455793
vn 0.19319787 -0.96195071 0.19319787
vn 0.10455793 -0.96195071 0.25242518
vn 9.4510846e-18 -0.96195071 0.27322305
vn -0.10455793 -0.96195071 0.25242518
vn -0.19319787 -0.96195071 0.19319787
vn -0.25242518 -0.96195071 0.10455793
vn -0.27322305 -0.96195071 6.6384039e-17
vn -0.25242518 -0.96195071 -0.10455793
vn -0.19319787 -0.96195071 -0.19319787
vn -0.10455793 -0.96195071 -0.25242518
vn -1.8902169e-17 -0.96195071 -0.27322305
vn 0.10455793 -0.96195071 -0.25242518
vn 0.19319787 -0.96195071 -0.19319787
vn 0.25242518 -0.96195071 -0.10455793
vn 0.27744985 0.91977737 0.27754491
vn 0.14624282 0.92403871 0.35322161
vn 1.1757030e-4 0.93091089 0.36524636
vn -0.13123491 0.93901079 0.31786181
vn -0.64995688 0.39382170 -0.64996963
vn -0.35347806 0.38326110 -0.85332537
vn -1.1637750e-4 0.36544058 -0.93083466
vn 0.35922218 0.34302126 -0.86792617
vn -0.92958623 0.36846543 -1.0132328e-2
vn -9.9406499e-2 0.50686212 0.85627632
vn 0.35386337 0.52619552 0.77323928
vn 0.89125844 0.27084357 -0.36373363
vn 0.87956033 0.47578733 2.1868212e-4
vn 0.80507780 0.49026632 0.33389918
vn 0.29273766 0.65894812 0.69288674
vn -0.27623997 0.66500635 -0.69387177
vn 0.33063068 0.50189673 -0.79923903
vn 0.61927031 0.48209969 -0.61974525
vn 0.81400532 0.47291665 -0.33726130
vn -0.14799756 0.98898767 -3.3337785e-4
vn -0.14702724 0.98721364 -6.1580927e-2
vn -6.3923389e-2 0.98568069 0.15603644
vn -0.10778958 0.98823221 0.10852884
vn -0.13460302 0.98932220 5.5889217e-2
vn 0.99150479 0.13007004 1.8143327e-4
vn 0.91378097 0.14653528 0.37885584
vn 0.37745714 0.15985491 -0.91212527
vn 0.70021902 0.13723262 -0.70061440
vn 0.91639367 0.12682066 -0.37965663
vn -0.27563659 0.21443195 -0.93703971
vn -0.84581029 0.52771383 -7.8250011e-2
vn -0.55329517 0.53115797 0.64166632
vn 0.46454554 0.19557062 0.86368372
vn 0.51788977 0.67509630 0.52539049
vn 2.4667827e-4 0.52131788 0.85336253
vn -0.33127821 0.49928429 0.80060599
vn -0.61818044 0.48513319 0.61846482
vn -0.80992473 0.48114218 0.33544617
vn -0.87287713 0.48794001 -2.4775232e-4
vn -0.79759295 0.50445173 -0.33071730
vn -0.60036511 0.52800021 -0.60064758
vn -5.9125219e-3 0.67827023 -0.73478877
vn -3.3122203e-4 0.97919198 -0.20293586
vn 7.1312228e-2 0.98230157 -0.17319986
vn 0.12524475 0.98414532 -0.12558562
vn 0.16129715 0.98464466 -6.6769235e-2
vn 0.17933091 0.98378877 2.9936577e-4
vn 0.17626359 0.98159904 7.3447024e-2
vn 0.14668684 0.97818806 0.14707513
vn 2.1054666e-4 0.19861852 0.98007685
vn -0.37664778 0.17326608 0.91000842
vn -0.69820298 0.15713802 0.69844129
vn -0.91306809 0.15261078 0.37817539
vn -0.98706384 0.16032755 -2.0790732e-4
vn -0.90882406 0.17918525 -0.37673793
vn -0.69176512 0.20636688 -0.69200703
vn 0.61525777 0.24543040 0.74914738
vn 0.80827902 0.51325992 -0.28852952
vn 0.77767498 0.50780435 -0.37061621
vn -9.5192139e-2 0.25328864 -0.96269586
vn 0.69076512 0.66406058 0.28612428
vn 0.74767878 0.66406058 8.0517363e-16
vn 0.69076512 0.66406058 -0.28612428
vn 0.52868873 0.66406058 -0.52868873
vn 0.28612428 0.66406058 -0.69076512
vn -1.2301264e-16 0.66406058 -0.74767878
vn -0.28612428 0.66406058 -0.69076512
vn -0.52868873 0.66406058 -0.52868873
vn -0.69076512 0.66406058 -0.28612428
vn -0.74767878 0.66406058 9.3936924e-16
vn -0.69076512 0.66406058 0.28612428
vn -0.52868873 0.66406058 0.52868873
vn -0.28612428 0.66406058 0.69076512
vn 0.0000000e+0 0.66406058 0.74767878
vn 0.28612428 0.66406058 0.69076512
vn 0.52868873 0.66406058 0.52868873
g sphere1_lettuce
usemtl lettuce
f 1//1 125//125 129//129 16//16
f 1//1 167//167 166//166 2//2
f 2//2 126//126 125//125 1//1
f 2//2 166//166 181//181 3//3
f 3//3 137//137 126//126 2//2
f 3//3 181//181 180//180 4//4
f 4//4 139//139 20//20 19//19 120//120 3//3
f 4//4 163//163 162//162 139//139
f 4//4 180//180 179//179 5//5
f 5//5 148//148 163//163 4//4
f 5//5 179//179 178//178 6//6
f 6//6 149//149 148//148 5//5
f 6//6 178//178 177//177 7//7
f 7//7 150//150 149//149 6//6
f 7//7 177//177 176//176 8//8
f 8//8 151//151 150//150 7//7
f 8//8 176//176 175//175 9//9
f 9//9 152//152 151//151 8//8
f 9//9 175//175 174//174 10//10
f 10//10 153//153 152//152 9//9
f 10//10 174//174 173//173 11//11
f 11//11 154//154 153//153 10//10
f 11//11 173//173 172//172 12//12
f 12//12 164//164 154//154 11//11
f 12//12 172//172 171//171 13//13
f 13//13 121//121 29//29 28//28 147//147 12//12
f 13//13 136//136 135//135 121//121
f 13//13 171//171 170//170 14//14
f 14//14 127//127 136//136 13//13
f 14//14 170//170 169//169 15//15
f 15//15 128//128 127//127 14//14
f 15//15 169//169 168//168 16//16
f 16//16 129//129 128//128 15//15
f 16//16 168//168 167//167 1//1
f 17//17 33//33 41//41 32//32
f 17//17 118//118 119//119 18//18
f 18//18 33//33 17//17
f 18//18 119//119 120//120 19//19
f 19//19 44//44 43//43 18//18
f 20//20 45//45 44//44 19//19
f 20//20 139//139 140//140 21//21
f 21//21 46//46 45//45 20//20
f 21//21 140//140 141//141 22//22
f 22//22 47//47 46//46 21//21
f 22//22 141//141 142//142 23//23
f 23//23 48//48 47//47 22//22
f 23//23 142//142 143//143 24//24
f 24//24 49//49 48//48 23//23
f 24//24 143//143 144//144 25//25
f 25//25 34//34 24//24
f 25//25 144//144 145//145 26//26
f 26//26 35//35 34//34 25//25
f 26//26 115//115 114//114 35//35
f 26//26 145//145 146//146 27//27
f 27//27 106//106 115//115 26//26
f 27//27 146//146 147//147 28//28
f 28//28 107//107 106//106 27//27
f 29//29 108//108 107//107 28//28
f 29//29 121//121 122//122 30//30
f 30//30 109//109 108//108 29//29
f 30//30 122//122 123//123 31//31
f 31//31 116//116 109//109 30//30
f 31//31 123//123 124//124 32//32
f 32//32 41//41 40//40 31//31
f 32//32 124//124 118//118 17//17
f 33//33 18//18 43//43
f 33//33 42//42 57//57 41//41
f 33//33 43//43 42//42
f 35//35 51//51 50//50 34//34
f 35//35 114//114 110//110 36//36
f 36//36 52//52 51//51 35//35
f 36//36 110//110 111//111 37//37
f 37//37 53//53 52//52 36//36
f 37//37 111//111 112//112 38//38
f 38//38 54//54 53//53 37//37
f 38//38 112//112 113//113 39//39
f 39//39 55//55 54//54 38//38
f 39//39 113//113 117//117 40//40
f 40//40 56//56 55//55 39//39
f 40//40 117//117 116//116 31//31
f 41//41 57//57 56//56 40//40
f 42//42 58//58 73//73 57//57
f 43//43 59//59 58//58 42//42
f 44//44 60//60 59//59 43//43
f 45//45 61//61 60//60 44//44
f 46//46 62//62 61//61 45//45
f 47//47 63//63 62//62 46//46
f 48//48 64//64 63//63 47//47
f 49//49 24//24 34//34
f 49//49 34//34 50//50
f 49//49 65//65 64//64 48//48
f 50//50 66//66 65//65 49//49
f 51//51 67//67 66//66 50//50
f 52//52 68//68 67//67 51//51
f 53//53 69//69 68//68 52//52
f 54//54 70//70 69//69 53//53
f 55//55 71//71 70//70 54//54
f 56//56 72//72 71//71 55//55
f 57//57 73//73 72//72 56//56
f 58//58 74//74 89//89 73//73
f 59//59 75//75 74//74 58//58
f 60//60 76//76 75//75 59//59
f 61//61 77//77 76//76 60//60
f 62//62 78//78 77//77 61//61
f 63//63 79//79 78//78 62//62
f 64//64 80//80 79//79 63//63
f 65//65 81//81 80//80 64//64
f 66//66 82//82 81//81 65//65
f 67//67 83//83 82//82 66//66
f 68//68 84//84 83//83 67//67
f 69//69 85//85 84//84 68//68
f 70//70 86//86 85//85 69//69
f 71//71 87//87 86//86 70//70
f 72//72 88//88 87//87 71//71
f 73//73 89//89 88//88 72//72
f 74//74 90//90 105//105 89//89
f 75//75 91//91 90//90 74//74
f 76//76 92//92 91//91 75//75
f 77//77 93//93 92//92 76//76
f 78//78 94//94 93//93 77//77
f 79//79 95//95 94//94 78//78
f 80//80 96//96 95//95 79//79
f 81//81 97//97 96//96 80//80
f 82//82 98//98 97//97 81//81
f 83//83 99//99 98//98 82//82
f 84//84 100//100 99//99 83//83
f 85//85 101//101 100//100 84//84
f 86//86 102//102 101//101 85//85
f 87//87 103//103 102//102 86//86
f 88//88 104//104 103//103 87//87
f 89//89 105//105 104//104 88//88
f 91//91 92//92 93//93 94//94 95//95 96//96 97//97 98//98 99//99 100//100 101//101 102//102 103//103 104//104 105//105 90//90
f 106//106 107//107 111//111 110//110
f 107//107 108//108 112//112 111//111
f 108//108 109//109 113//113 112//112
f 109//109 116//116 117//117 113//113
f 110//110 114//114 115//115 106//106
f 118//118 130//130 131//131 119//119
f 119//119 131//131 138//138 120//120
f 120//120 138//138 137//137 3//3
f 121//121 135//135 132//132 122//122
f 122//122 132//132 133//133 123//123
f 123//123 133//133 134//134 124//124
f 124//124 134//134 130//130 118//118
f 125//125 126//126 131//131 130//130
f 126//126 137//137 138//138 131//131
f 127//127 128//128 133//133 132//132
f 128//128 129//129 134//134 133//133
f 130//130 134//134 129//129 125//125
f 132//132 135//135 136//136 127//127
f 139//139 162//162 155//155 140//140
f 140//140 155//155 156//156 141//141
f 141//141 156//156 157//157 142//142
f 142//142 157//157 158//158 143//143
f 143//143 158//158 159//159 144//144
f 144//144 159//159 160//160 145//145
f 145//145 160//160 161//161 146//146
f 146//146 161//161 165//165 147//147
f 147//147 165//165 164//164 12//12
f 148//148 149//149 156//156 155//155
f 149//149 150//150 157//157 156//156
f 150//150 151//151 158//158 157//157
f 151//151 152//152 159//159 158//158
f 152//152 153//153 160//160 159//159
f 153//153 154//154 161//161 160//160
f 154//154 164//164 165//165 161//161
f 155//155 162//162 163//163 148//148
f 167//167 168//168 169//169 170//170 171//171 172//172 173//173 174//174 175//175 176//176 177//177 178//178 179//179 180//180 181//181 166//166
