# Exported from Wings 3D 0.98.29b
mtllib lettuce-eat4.mtl
o sphere1
#88 vertices, 90 faces
v 0.38268343 1.22248454 0.0000000e+0
v 0.35355339 1.22248454 0.14644661
v 0.27059805 1.22248454 0.27059805
v 0.14644661 1.22248454 0.35355339
v -7.0295484e-17 1.22248454 -0.38268343
v 0.14644661 1.22248454 -0.35355339
v 0.27059805 1.22248454 -0.27059805
v 0.35355339 1.22248454 -0.14644661
v 0.50000000 1.07984807 0.50000000
v 0.27059805 1.07984807 0.65328148
v 4.3296373e-17 1.07984807 0.70710678
v -0.27059805 1.07984807 0.65328148
v -0.50000000 1.07984807 0.50000000
v -0.65328148 1.07984807 0.27059805
v -0.70710678 1.07984807 8.6592746e-17
v -0.65328148 1.07984807 -0.27059805
v -0.50000000 1.07984807 -0.37862928
v -1.2988912e-16 1.07984807 -0.58573606
v -0.92387953 0.86637751 1.1313887e-16
v 1.00000000 0.61457181 0.0000000e+0
v 0.92387953 0.61457181 0.38268343
v 0.70710678 0.61457181 0.60461595
v 0.38268343 0.61457181 0.82138870
v 6.1230318e-17 0.61457181 0.89750917
v -0.38268343 0.61457181 0.82138870
v -0.70710678 0.61457181 0.60461595
v -0.92387953 0.61457181 0.38268343
v -1.00000000 0.61457181 1.2246064e-16
v -0.92387953 0.61457181 -0.38268343
v -0.70710678 0.61457181 -0.48594236
v -0.38268343 0.61457181 -0.70271511
v -1.8369095e-16 0.61457181 -0.77883558
v 0.38268343 0.61457181 -0.70271511
v 0.70710678 0.61457181 -0.70710678
v 0.92387953 0.61457181 -0.38268343
v 0.92387953 0.36276611 0.0000000e+0
v 0.85355339 0.36276611 0.35355339
v 0.65328148 0.36276611 0.65328148
v 0.35355339 0.36276611 0.85355339
v 5.6569437e-17 0.36276611 0.92387953
v -0.35355339 0.36276611 0.85355339
v -0.65328148 0.36276611 0.65328148
v -0.85355339 0.36276611 0.35355339
v -0.92387953 0.36276611 1.1313887e-16
v -0.85355339 0.36276611 -0.35355339
v -0.65328148 0.36276611 -0.65328148
v -0.35355339 0.36276611 -0.85355339
v -1.6970831e-16 0.36276611 -0.92387953
v 0.35355339 0.36276611 -0.85355339
v 0.65328148 0.36276611 -0.65328148
v 0.85355339 0.36276611 -0.35355339
v 0.70710678 0.14929555 0.0000000e+0
v 0.65328148 0.14929555 0.27059805
v 0.50000000 0.14929555 0.50000000
v 0.27059805 0.14929555 0.65328148
v 4.3296373e-17 0.14929555 0.70710678
v -0.27059805 0.14929555 0.65328148
v -0.50000000 0.14929555 0.50000000
v -0.65328148 0.14929555 0.27059805
v -0.70710678 0.14929555 8.6592746e-17
v -0.65328148 0.14929555 -0.27059805
v -0.50000000 0.14929555 -0.50000000
v -0.27059805 0.14929555 -0.65328148
v -1.2988912e-16 0.14929555 -0.70710678
v 0.27059805 0.14929555 -0.65328148
v 0.50000000 0.14929555 -0.50000000
v 0.65328148 0.14929555 -0.27059805
v 0.38268343 6.6590800e-3 0.0000000e+0
v 0.35355339 6.6590800e-3 0.14644661
v 0.27059805 6.6590800e-3 0.27059805
v 0.14644661 6.6590800e-3 0.35355339
v 2.3431828e-17 6.6590800e-3 0.38268343
v -0.14644661 6.6590800e-3 0.35355339
v -0.27059805 6.6590800e-3 0.27059805
v -0.35355339 6.6590800e-3 0.14644661
v -0.38268343 6.6590800e-3 4.6863656e-17
v -0.35355339 6.6590800e-3 -0.14644661
v -0.27059805 6.6590800e-3 -0.27059805
v -0.14644661 6.6590800e-3 -0.35355339
v -7.0295484e-17 6.6590800e-3 -0.38268343
v 0.14644661 6.6590800e-3 -0.35355339
v 0.27059805 6.6590800e-3 -0.27059805
v 0.35355339 6.6590800e-3 -0.14644661
v -0.20852233 1.15116631 0.50341744
v -0.38529903 1.15116631 0.38529903
v -0.50341744 1.15116631 0.20852233
v -0.54489511 1.15116631 6.6728201e-17
v -0.50341744 1.15116631 -0.20852233
vn 0.55710952 0.83040598 -7.4087686e-3
vn 0.37693218 0.92185477 9.0032830e-2
vn 0.19319787 0.96195071 0.19319787
vn 3.6371920e-3 0.99057157 0.13694792
vn -0.11573194 0.92684613 -0.35715875
vn 0.13720424 0.86678740 -0.47943154
vn 0.40268473 0.84023158 -0.36311969
vn -9.1276080e-2 0.99582427 1.6446544e-3
vn 0.53255109 0.72744926 0.43267414
vn 0.25574981 0.71221027 0.65371903
vn -1.6707170e-2 0.70423577 0.70976957
vn -0.27092088 0.70487562 0.65555491
vn -0.47029425 0.72351931 0.50531488
vn -0.60570791 0.74332533 0.28387565
vn -0.56082373 0.82793523 6.3904519e-17
vn -0.55553036 0.74308710 -0.37310532
vn -0.37626617 0.66877050 -0.64122522
vn 1.4964801e-2 0.57645933 -0.81698880
vn -0.84500733 0.53475472 1.3648682e-16
vn 0.96690323 0.25462351 -1.6279168e-2
vn 0.87307330 0.31783133 0.36976514
vn 0.64670976 0.18342720 0.74035191
vn 0.37156516 0.23609883 0.89788455
vn -1.4272591e-17 0.24407897 0.96975536
vn -0.37156516 0.23609883 0.89788455
vn -0.65936875 0.19736679 0.72545103
vn -0.89211563 0.18380034 0.41273132
vn -1.00000000 2.9516988e-17 1.5496418e-16
vn -0.84158334 0.21634469 -0.49490651
vn -0.55096012 0.31663246 -0.77213136
vn -0.34131713 0.45898698 -0.82026433
vn -2.1188538e-16 0.44220537 -0.89691383
vn 0.23301214 0.40639708 -0.88348557
vn 0.56193442 0.33065348 -0.75822028
vn 0.88686030 0.25295097 -0.38664533
vn 0.85545925 -0.51787013 -1.4519971e-16
vn 0.79427848 -0.49376240 0.35400621
vn 0.62618534 -0.41656488 0.65906419
vn 0.35808717 -0.35424279 0.86387825
vn 0.0000000e+0 -0.33976123 0.94051172
vn -0.35808717 -0.35424279 0.86387825
vn -0.62618534 -0.41656488 0.65906419
vn -0.79427848 -0.49376240 0.35400621
vn -0.85545925 -0.51787013 1.3793972e-16
vn -0.79814964 -0.45650971 -0.39313616
vn -0.63583544 -0.28703983 -0.71646453
vn -0.38016573 -0.16365715 -0.91032431
vn -1.1538618e-16 -0.13673687 -0.99060740
vn 0.29937942 -0.23572555 -0.92455688
vn 0.58022431 -0.43651065 -0.68760323
vn 0.79034129 -0.51787013 -0.32737008
vn 0.56082373 -0.82793523 -4.9703515e-17
vn 0.51813356 -0.82793523 0.21461795
vn 0.39656226 -0.82793523 0.39656226
vn 0.21461795 -0.82793523 0.51813356
vn 7.1005021e-18 -0.82793523 0.56082373
vn -0.21461795 -0.82793523 0.51813356
vn -0.39656226 -0.82793523 0.39656226
vn -0.51813356 -0.82793523 0.21461795
vn -0.56082373 -0.82793523 1.2070854e-16
vn -0.51813356 -0.82793523 -0.21461795
vn -0.39656226 -0.82793523 -0.39656226
vn -0.21461795 -0.82793523 -0.51813356
vn -2.1301506e-17 -0.82793523 -0.56082373
vn 0.21461795 -0.82793523 -0.51813356
vn 0.39656226 -0.82793523 -0.39656226
vn 0.51813356 -0.82793523 -0.21461795
vn 0.27322305 -0.96195071 9.6775310e-18
vn 0.25242518 -0.96195071 0.10455793
vn 0.19319787 -0.96195071 0.19319787
vn 0.10455793 -0.96195071 0.25242518
vn 9.4510846e-18 -0.96195071 0.27322305
vn -0.10455793 -0.96195071 0.25242518
vn -0.19319787 -0.96195071 0.19319787
vn -0.25242518 -0.96195071 0.10455793
vn -0.27322305 -0.96195071 6.6384039e-17
vn -0.25242518 -0.96195071 -0.10455793
vn -0.19319787 -0.96195071 -0.19319787
vn -0.10455793 -0.96195071 -0.25242518
vn -1.8902169e-17 -0.96195071 -0.27322305
vn 0.10455793 -0.96195071 -0.25242518
vn 0.19319787 -0.96195071 -0.19319787
vn 0.25242518 -0.96195071 -0.10455793
vn -0.10436780 0.94335562 0.31494053
vn -0.23259736 0.94435001 0.23259736
vn -0.17739937 0.98138268 7.3603679e-2
vn -0.27322305 0.96195071 4.7255423e-17
vn -0.20723541 0.96465432 -0.16277449
g sphere1_lettuce
usemtl lettuce
f 1//1 4//4 3//3 2//2
f 1//1 7//7 8//8
f 2//2 9//9 21//21 1//1
f 3//3 9//9 2//2
f 4//4 10//10 9//9 3//3
f 5//5 7//7 6//6
f 6//6 18//18 5//5
f 7//7 5//5 88//88 86//86 8//8
f 7//7 34//34 33//33 18//18 6//6
f 8//8 4//4 1//1
f 8//8 86//86 4//4
f 10//10 4//4 84//84 11//11
f 10//10 23//23 22//22 9//9
f 11//11 24//24 23//23 10//10
f 11//11 84//84 12//12
f 12//12 25//25 24//24 11//11
f 12//12 84//84 85//85 13//13
f 13//13 26//26 25//25 12//12
f 13//13 85//85 86//86 14//14
f 14//14 27//27 26//26 13//13
f 14//14 86//86 87//87 15//15
f 15//15 19//19 14//14
f 15//15 87//87 88//88 16//16
f 16//16 19//19 15//15
f 16//16 29//29 19//19
f 16//16 88//88 17//17
f 17//17 30//30 29//29 16//16
f 18//18 31//31 17//17 5//5
f 20//20 1//1 21//21
f 20//20 36//36 51//51 35//35
f 21//21 9//9 22//22
f 21//21 37//37 36//36 20//20
f 22//22 38//38 37//37 21//21
f 23//23 39//39 38//38 22//22
f 24//24 40//40 39//39 23//23
f 25//25 41//41 40//40 24//24
f 26//26 42//42 41//41 25//25
f 27//27 14//14 19//19
f 27//27 19//19 28//28
f 27//27 43//43 42//42 26//26
f 28//28 19//19 29//29
f 28//28 44//44 43//43 27//27
f 29//29 45//45 44//44 28//28
f 30//30 17//17 31//31
f 30//30 46//46 45//45 29//29
f 31//31 18//18 32//32
f 31//31 47//47 46//46 30//30
f 32//32 18//18 33//33
f 32//32 48//48 47//47 31//31
f 33//33 49//49 48//48 32//32
f 34//34 7//7 35//35
f 34//34 50//50 49//49 33//33
f 35//35 7//7 1//1 20//20
f 35//35 51//51 50//50 34//34
f 36//36 52//52 67//67 51//51
f 37//37 53//53 52//52 36//36
f 38//38 54//54 53//53 37//37
f 39//39 55//55 54//54 38//38
f 40//40 56//56 55//55 39//39
f 41//41 57//57 56//56 40//40
f 42//42 58//58 57//57 41//41
f 43//43 59//59 58//58 42//42
f 44//44 60//60 59//59 43//43
f 45//45 61//61 60//60 44//44
f 46//46 62//62 61//61 45//45
f 47//47 63//63 62//62 46//46
f 48//48 64//64 63//63 47//47
f 49//49 65//65 64//64 48//48
f 50//50 66//66 65//65 49//49
f 51//51 67//67 66//66 50//50
f 52//52 68//68 83//83 67//67
f 53//53 69//69 68//68 52//52
f 54//54 70//70 69//69 53//53
f 55//55 71//71 70//70 54//54
f 56//56 72//72 71//71 55//55
f 57//57 73//73 72//72 56//56
f 58//58 74//74 73//73 57//57
f 59//59 75//75 74//74 58//58
f 60//60 76//76 75//75 59//59
f 61//61 77//77 76//76 60//60
f 62//62 78//78 77//77 61//61
f 63//63 79//79 78//78 62//62
f 64//64 80//80 79//79 63//63
f 65//65 81//81 80//80 64//64
f 66//66 82//82 81//81 65//65
f 67//67 83//83 82//82 66//66
f 69//69 70//70 71//71 72//72 73//73 74//74 75//75 76//76 77//77 78//78 79//79 80//80 81//81 82//82 83//83 68//68
f 84//84 4//4 86//86 85//85
f 86//86 88//88 87//87
f 88//88 5//5 17//17
