# Exported from Wings 3D 0.98.29b
mtllib long-hedge.mtl
o cube2
#193 vertices, 188 faces
v -1.83333333 0.0000000e+0 14.39000000
v -1.70370370 7.69044071 13.91555556
v 1.70370370 7.69044071 13.91555556
v 1.83333333 0.0000000e+0 14.39000000
v -1.83333333 0.0000000e+0 -14.36500000
v -1.70370370 7.69044071 -13.87111111
v 1.70370370 7.69044071 -13.87111111
v 1.83333333 0.0000000e+0 -14.36500000
v -0.66666667 0.0000000e+0 15.00000000
v 0.66666667 0.0000000e+0 15.00000000
v -0.66666667 7.86228409 14.39000000
v 0.66666667 7.86228409 14.39000000
v -0.66666667 0.0000000e+0 -15.00000000
v 0.66666667 0.0000000e+0 -15.00000000
v -0.66666667 7.86228409 -14.36500000
v 0.66666667 7.86228409 -14.36500000
v -2.00000000 0.0000000e+0 8.22500000
v -2.00000000 0.0000000e+0 -8.05000000
v -1.83333333 7.86228409 8.22500000
v -1.83333333 7.86228409 -8.05000000
v 1.83333333 7.86228409 8.22500000
v 1.83333333 7.86228409 -8.05000000
v 2.00000000 0.0000000e+0 8.22500000
v 2.00000000 0.0000000e+0 -8.05000000
v 0.66666667 8.08322559 8.22500000
v 0.66666667 8.08322559 -8.05000000
v -0.66666667 8.08322559 8.22500000
v -0.66666667 8.08322559 -8.05000000
v -1.83333333 3.50542550 14.39000000
v -1.83333333 6.19983403 14.39000000
v 1.83333333 6.19983403 14.39000000
v 1.83333333 3.50542550 14.39000000
v -1.83333333 3.50542550 -14.36500000
v -1.83333333 6.19983403 -14.36500000
v 1.83333333 6.19983403 -14.36500000
v 1.83333333 3.50542550 -14.36500000
v -0.66666667 6.19983403 15.00000000
v -0.66666667 3.50542550 15.00000000
v 0.66666667 6.19983403 15.00000000
v 0.66666667 3.50542550 15.00000000
v -0.66666667 3.50542550 -15.00000000
v -0.66666667 6.19983403 -15.00000000
v 0.66666667 3.50542550 -15.00000000
v 0.66666667 6.19983403 -15.00000000
v 2.00000000 6.19983403 8.22500000
v 2.00000000 3.50542550 8.22500000
v 2.00000000 6.19983403 -8.05000000
v 2.00000000 3.50542550 -8.05000000
v -2.00000000 3.50542550 8.22500000
v -2.00000000 6.19983403 8.22500000
v -2.00000000 3.50542550 -8.05000000
v -2.00000000 6.19983403 -8.05000000
v -1.83333333 1.81064253 14.39000000
v -1.33333333 0.0000000e+0 15.00000000
v -2.00000000 0.0000000e+0 12.56000000
v -1.33333333 7.86228409 14.39000000
v -1.83333333 7.86228409 12.56000000
v 1.83333333 7.19945960 14.39000000
v 1.83333333 7.86228409 12.56000000
v 2.00000000 0.0000000e+0 12.56000000
v -1.83333333 1.81064253 -14.36500000
v -1.33333333 0.0000000e+0 -15.00000000
v -1.33333333 7.86228409 -14.36500000
v 1.83333333 7.19945960 -14.36500000
v -5.5511151e-17 0.0000000e+0 15.00000000
v 1.33333333 0.0000000e+0 15.00000000
v -5.5511151e-17 7.86228409 14.39000000
v 1.33333333 7.86228409 14.39000000
v -5.5511151e-17 0.0000000e+0 -15.00000000
v 1.33333333 0.0000000e+0 -15.00000000
v -5.5511151e-17 7.86228409 -14.36500000
v 1.33333333 7.86228409 -14.36500000
v -0.66666667 7.19945960 15.00000000
v 0.66666667 7.19945960 15.00000000
v 0.66666667 8.08322559 12.56000000
v -0.66666667 8.08322559 12.56000000
v -0.66666667 1.81064253 -15.00000000
v 0.66666667 1.81064253 -15.00000000
v -2.00000000 0.0000000e+0 0.10000000
v -2.00000000 0.0000000e+0 -12.46000000
v -1.83333333 7.86228409 0.10000000
v -1.83333333 7.86228409 -12.46000000
v 1.83333333 7.86228409 0.10000000
v 1.83333333 7.86228409 -12.46000000
v 2.00000000 0.0000000e+0 0.10000000
v 2.00000000 0.0000000e+0 -12.46000000
v 0.66666667 8.08322559 0.10000000
v 0.66666667 8.08322559 -12.46000000
v -0.66666667 8.08322559 0.10000000
v -0.66666667 8.08322559 -12.46000000
v 2.00000000 7.19945960 8.22500000
v 2.00000000 7.19945960 -8.05000000
v 1.33333333 8.08322559 -8.05000000
v 1.33333333 8.08322559 8.22500000
v -2.00000000 1.81064253 8.22500000
v -2.00000000 1.81064253 -8.05000000
v -5.5511151e-17 8.08322559 8.22500000
v -5.5511151e-17 8.08322559 -8.05000000
v -1.33333333 8.08322559 8.22500000
v -1.33333333 8.08322559 -8.05000000
v -1.83333333 4.96848933 14.39000000
v -1.83333333 7.19945960 14.39000000
v 1.83333333 4.96848933 14.39000000
v 1.83333333 1.81064253 14.39000000
v -1.83333333 4.96848933 -14.36500000
v -1.83333333 7.19945960 -14.36500000
v 1.83333333 4.96848933 -14.36500000
v 1.83333333 1.81064253 -14.36500000
v -0.66666667 4.96848933 15.00000000
v -0.66666667 1.81064253 15.00000000
v 0.66666667 4.96848933 15.00000000
v 0.66666667 1.81064253 15.00000000
v -0.66666667 4.96848933 -15.00000000
v -0.66666667 7.19945960 -15.00000000
v 0.66666667 4.96848933 -15.00000000
v 0.66666667 7.19945960 -15.00000000
v 2.00000000 4.96848933 8.22500000
v 2.00000000 1.81064253 8.22500000
v 2.00000000 4.96848933 -8.05000000
v 2.00000000 1.81064253 -8.05000000
v -2.00000000 4.96848933 8.22500000
v -2.00000000 7.19945960 8.22500000
v -2.00000000 4.96848933 -8.05000000
v -2.00000000 7.19945960 -8.05000000
v -1.33333333 3.50542550 15.00000000
v -1.33333333 6.19983403 15.00000000
v 2.00000000 6.19983403 12.56000000
v 2.00000000 3.50542550 12.56000000
v -1.33333333 6.19983403 -15.00000000
v -1.33333333 3.50542550 -15.00000000
v -2.00000000 3.50542550 12.56000000
v -2.00000000 6.19983403 12.56000000
v -5.5511151e-17 3.50542550 15.00000000
v -5.5511151e-17 6.19983403 15.00000000
v 1.33333333 6.19983403 15.00000000
v 1.33333333 3.50542550 15.00000000
v -5.5511151e-17 3.50542550 -15.00000000
v -5.5511151e-17 6.19983403 -15.00000000
v 1.33333333 3.50542550 -15.00000000
v 1.33333333 6.19983403 -15.00000000
v 2.00000000 6.19983403 0.10000000
v 2.00000000 3.50542550 0.10000000
v 2.00000000 3.50542550 -12.46000000
v 2.00000000 6.19983403 -12.46000000
v -2.00000000 3.50542550 0.10000000
v -2.00000000 6.19983403 0.10000000
v -2.00000000 6.19983403 -12.46000000
v -2.00000000 3.50542550 -12.46000000
v -1.33333333 1.81064253 15.00000000
v 2.00000000 7.19945960 12.56000000
v 1.33333333 8.08322559 -12.46000000
v -1.33333333 7.19945960 -15.00000000
v -2.00000000 1.81064253 12.56000000
v -5.5511151e-17 1.81064253 15.00000000
v 1.33333333 7.19945960 15.00000000
v -5.5511151e-17 8.08322559 12.56000000
v -1.33333333 8.08322559 12.56000000
v -5.5511151e-17 1.81064253 -15.00000000
v 1.33333333 1.81064253 -15.00000000
v 2.00000000 7.19945960 0.10000000
v 2.00000000 1.81064253 -12.46000000
v 1.33333333 8.08322559 0.10000000
v 1.33333333 8.08322559 12.56000000
v -2.00000000 1.81064253 0.10000000
v -2.00000000 7.19945960 -12.46000000
v -5.5511151e-17 8.08322559 0.10000000
v -5.5511151e-17 8.08322559 -12.46000000
v -1.33333333 8.08322559 0.10000000
v -1.33333333 8.08322559 -12.46000000
v -1.33333333 4.96848933 15.00000000
v -1.33333333 7.19945960 15.00000000
v 2.00000000 4.96848933 12.56000000
v 2.00000000 1.81064253 12.56000000
v -1.33333333 4.96848933 -15.00000000
v -1.33333333 1.81064253 -15.00000000
v -2.00000000 4.96848933 12.56000000
v -2.00000000 7.19945960 12.56000000
v -5.5511151e-17 4.96848933 15.00000000
v -5.5511151e-17 7.19945960 15.00000000
v 1.33333333 4.96848933 15.00000000
v 1.33333333 1.81064253 15.00000000
v -5.5511151e-17 4.96848933 -15.00000000
v -5.5511151e-17 7.19945960 -15.00000000
v 1.33333333 4.96848933 -15.00000000
v 1.33333333 7.19945960 -15.00000000
v 2.00000000 4.96848933 0.10000000
v 2.00000000 1.81064253 0.10000000
v 2.00000000 4.96848933 -12.46000000
v 2.00000000 7.19945960 -12.46000000
v -2.00000000 4.96848933 0.10000000
v -2.00000000 7.19945960 0.10000000
v -2.00000000 4.96848933 -12.46000000
v -2.00000000 1.81064253 -12.46000000
vn -0.82000330 -0.46346974 0.33584280
vn -0.75572632 0.60392334 0.25328707
vn 0.75572632 0.60392334 0.25328707
vn 0.82000330 -0.46346974 0.33584280
vn -0.82426764 -0.46258611 -0.32649189
vn -0.75749977 0.60528173 -0.24459789
vn 0.75749977 0.60528173 -0.24459789
vn 0.82426764 -0.46258611 -0.32649189
vn 0.0000000e+0 -0.44721360 0.89442719
vn 0.0000000e+0 -0.44721360 0.89442719
vn -3.8963900e-16 0.88997142 0.45601631
vn 4.4571004e-18 0.88997142 0.45601631
vn 0.0000000e+0 -0.44721360 -0.89442719
vn 0.0000000e+0 -0.44721360 -0.89442719
vn 0.0000000e+0 0.89554178 -0.44497744
vn 0.0000000e+0 0.89554178 -0.44497744
vn -0.70710678 -0.70710678 0.0000000e+0
vn -0.70710678 -0.70710678 0.0000000e+0
vn -0.76450223 0.64462108 0.0000000e+0
vn -0.76450223 0.64462108 0.0000000e+0
vn 0.76450223 0.64462108 -1.0639918e-17
vn 0.76450223 0.64462108 1.0289326e-17
vn 0.70710678 -0.70710678 0.0000000e+0
vn 0.70710678 -0.70710678 0.0000000e+0
vn 0.0000000e+0 1.00000000 0.0000000e+0
vn 0.0000000e+0 1.00000000 0.0000000e+0
vn 0.0000000e+0 1.00000000 0.0000000e+0
vn 0.0000000e+0 1.00000000 0.0000000e+0
vn -0.92539387 0.0000000e+0 0.37900685
vn -0.92539387 2.5663635e-17 0.37900685
vn 0.92539387 0.0000000e+0 0.37900685
vn 0.92539387 -2.1599045e-17 0.37900685
vn -0.92972195 8.4580871e-17 -0.36826227
vn -0.92972195 1.1641437e-16 -0.36826227
vn 0.92972195 -1.3769720e-16 -0.36826227
vn 0.92972195 -9.5145857e-17 -0.36826227
vn 0.0000000e+0 0.0000000e+0 1.00000000
vn 0.0000000e+0 0.0000000e+0 1.00000000
vn 0.0000000e+0 0.0000000e+0 1.00000000
vn 0.0000000e+0 0.0000000e+0 1.00000000
vn 0.0000000e+0 0.0000000e+0 -1.00000000
vn 0.0000000e+0 0.0000000e+0 -1.00000000
vn 0.0000000e+0 0.0000000e+0 -1.00000000
vn 0.0000000e+0 0.0000000e+0 -1.00000000
vn 1.00000000 0.0000000e+0 0.0000000e+0
vn 1.00000000 0.0000000e+0 0.0000000e+0
vn 1.00000000 0.0000000e+0 0.0000000e+0
vn 1.00000000 0.0000000e+0 0.0000000e+0
vn -1.00000000 0.0000000e+0 0.0000000e+0
vn -1.00000000 0.0000000e+0 0.0000000e+0
vn -1.00000000 0.0000000e+0 0.0000000e+0
vn -1.00000000 0.0000000e+0 0.0000000e+0
vn -0.92539387 -3.4905599e-17 0.37900685
vn -0.28687756 -0.74186835 0.60607972
vn -0.70601339 -0.70747137 3.2083579e-2
vn -0.32389654 0.85450162 0.40610098
vn -0.76714769 0.63831939 6.3504052e-2
vn 0.91180670 0.21741203 0.34833970
vn 0.76714769 0.63831939 6.3504052e-2
vn 0.70601339 -0.70747137 3.2083579e-2
vn -0.92972195 6.7850554e-17 -0.36826227
vn -0.38167934 -0.48579868 -0.78633359
vn -0.32532329 0.85912772 -0.39504977
vn 0.91553559 0.21837115 -0.33779968
vn 0.0000000e+0 -0.70710678 0.70710678
vn 0.37436467 -0.48405546 0.79091175
vn -1.9259095e-16 0.88997142 0.45601631
vn 0.32389654 0.85450162 0.40610098
vn 0.0000000e+0 -0.70710678 -0.70710678
vn 0.29204824 -0.74343372 -0.60167610
vn 0.0000000e+0 0.89554178 -0.44497744
vn 0.32532329 0.85912772 -0.39504977
vn -1.9844354e-16 0.36344218 0.93161676
vn 1.9844354e-16 0.36344218 0.93161676
vn -1.8101817e-16 0.99819599 6.0039628e-2
vn -1.8101817e-16 0.99819599 6.0039628e-2
vn 0.0000000e+0 0.0000000e+0 -1.00000000
vn 0.0000000e+0 0.0000000e+0 -1.00000000
vn -0.70710678 -0.70710678 0.0000000e+0
vn -0.70609734 -0.70744337 -3.0829016e-2
vn -0.76450223 0.64462108 0.0000000e+0
vn -0.76725369 0.63843336 -6.1029659e-2
vn 0.76450223 0.64462108 3.7331080e-20
vn 0.76725369 0.63843336 -6.1029659e-2
vn 0.70710678 -0.70710678 0.0000000e+0
vn 0.70609734 -0.70744337 -3.0829016e-2
vn 0.0000000e+0 1.00000000 0.0000000e+0
vn 0.0000000e+0 0.99833397 -5.7699896e-2
vn 0.0000000e+0 1.00000000 0.0000000e+0
vn 0.0000000e+0 0.99833397 -5.7699896e-2
vn 0.99242403 0.12285985 0.0000000e+0
vn 0.99242403 0.12285985 0.0000000e+0
vn 0.20654420 0.97843727 9.4499476e-18
vn 0.20654420 0.97843727 -9.7719387e-18
vn -1.00000000 0.0000000e+0 0.0000000e+0
vn -1.00000000 0.0000000e+0 0.0000000e+0
vn 0.0000000e+0 1.00000000 0.0000000e+0
vn 0.0000000e+0 1.00000000 0.0000000e+0
vn -0.20654420 0.97843727 0.0000000e+0
vn -0.20654420 0.97843727 0.0000000e+0
vn -0.92539387 2.5663635e-17 0.37900685
vn -0.91180670 0.21741203 0.34833970
vn 0.92539387 -2.1599045e-17 0.37900685
vn 0.92539387 -1.7452799e-17 0.37900685
vn -0.92972195 1.1641437e-16 -0.36826227
vn -0.91553559 0.21837115 -0.33779968
vn 0.92972195 -1.0187307e-16 -0.36826227
vn 0.92972195 -8.0312428e-17 -0.36826227
vn 0.0000000e+0 0.0000000e+0 1.00000000
vn 0.0000000e+0 0.0000000e+0 1.00000000
vn 0.0000000e+0 0.0000000e+0 1.00000000
vn 0.0000000e+0 0.0000000e+0 1.00000000
vn 0.0000000e+0 0.0000000e+0 -1.00000000
vn 0.0000000e+0 0.37275948 -0.92792800
vn 0.0000000e+0 0.0000000e+0 -1.00000000
vn 0.0000000e+0 0.37275948 -0.92792800
vn 1.00000000 0.0000000e+0 0.0000000e+0
vn 1.00000000 0.0000000e+0 0.0000000e+0
vn 1.00000000 0.0000000e+0 0.0000000e+0
vn 1.00000000 0.0000000e+0 0.0000000e+0
vn -1.00000000 0.0000000e+0 0.0000000e+0
vn -0.99242403 0.12285985 0.0000000e+0
vn -1.00000000 0.0000000e+0 0.0000000e+0
vn -0.99242403 0.12285985 0.0000000e+0
vn -0.42782709 0.0000000e+0 0.90386060
vn -0.42782709 0.0000000e+0 0.90386060
vn 0.99896905 0.0000000e+0 4.5396452e-2
vn 0.99896905 -2.0669031e-17 4.5396452e-2
vn -0.43666872 1.2400492e-16 -0.89962238
vn -0.43666872 9.0095788e-17 -0.89962238
vn -0.99896905 0.0000000e+0 4.5396452e-2
vn -0.99896905 2.4558608e-17 4.5396452e-2
vn 0.0000000e+0 0.0000000e+0 1.00000000
vn 0.0000000e+0 0.0000000e+0 1.00000000
vn 0.42782709 0.0000000e+0 0.90386060
vn 0.42782709 0.0000000e+0 0.90386060
vn 0.0000000e+0 0.0000000e+0 -1.00000000
vn 0.0000000e+0 0.0000000e+0 -1.00000000
vn 0.43666872 -1.0436510e-16 -0.89962238
vn 0.43666872 -1.5275000e-16 -0.89962238
vn 1.00000000 0.0000000e+0 0.0000000e+0
vn 1.00000000 0.0000000e+0 0.0000000e+0
vn 0.99904821 2.7153608e-18 -4.3619586e-2
vn 0.99904821 5.4700074e-18 -4.3619586e-2
vn -1.00000000 0.0000000e+0 0.0000000e+0
vn -1.00000000 0.0000000e+0 0.0000000e+0
vn -0.99904821 0.0000000e+0 -4.3619586e-2
vn -0.99904821 0.0000000e+0 -4.3619586e-2
vn -0.42782709 0.0000000e+0 0.90386060
vn 0.98973434 0.13418350 4.9200896e-2
vn 0.22339521 0.97281867 -6.0978834e-2
vn -0.43838135 0.35979787 -0.82363055
vn -0.99896905 -3.3402630e-17 4.5396452e-2
vn 0.0000000e+0 0.0000000e+0 1.00000000
vn 0.43024629 0.35192081 0.83128808
vn -1.8101817e-16 0.99819599 6.0039628e-2
vn -0.22335158 0.97267068 6.3449282e-2
vn 0.0000000e+0 0.0000000e+0 -1.00000000
vn 0.43666872 -8.4330730e-17 -0.89962238
vn 0.99242403 0.12285985 0.0000000e+0
vn 0.99904821 -1.0970543e-18 -4.3619586e-2
vn 0.20654420 0.97843727 3.4285700e-20
vn 0.22335158 0.97267068 6.3449282e-2
vn -1.00000000 0.0000000e+0 0.0000000e+0
vn -0.98982562 0.13420175 -4.7277144e-2
vn 0.0000000e+0 1.00000000 0.0000000e+0
vn 0.0000000e+0 0.99833397 -5.7699896e-2
vn -0.20654420 0.97843727 0.0000000e+0
vn -0.22339521 0.97281867 -6.0978834e-2
vn -0.42782709 0.0000000e+0 0.90386060
vn -0.43024629 0.35192081 0.83128808
vn 0.99896905 -2.0669031e-17 4.5396452e-2
vn 0.99896905 -1.6701315e-17 4.5396452e-2
vn -0.43666872 1.2400492e-16 -0.89962238
vn -0.43666872 9.0095788e-17 -0.89962238
vn -0.99896905 2.4558608e-17 4.5396452e-2
vn -0.98973434 0.13418350 4.9200896e-2
vn 0.0000000e+0 0.0000000e+0 1.00000000
vn 1.5876853e-31 0.36344218 0.93161676
vn 0.42782709 0.0000000e+0 0.90386060
vn 0.42782709 0.0000000e+0 0.90386060
vn 0.0000000e+0 0.0000000e+0 -1.00000000
vn 0.0000000e+0 0.37275948 -0.92792800
vn 0.43666872 -1.0436510e-16 -0.89962238
vn 0.43838135 0.35979787 -0.82363055
vn 1.00000000 0.0000000e+0 0.0000000e+0
vn 1.00000000 0.0000000e+0 0.0000000e+0
vn 0.99904821 -3.7373347e-18 -4.3619586e-2
vn 0.98982562 0.13420175 -4.7277144e-2
vn -1.00000000 0.0000000e+0 0.0000000e+0
vn -0.99242403 0.12285985 0.0000000e+0
vn -0.99904821 0.0000000e+0 -4.3619586e-2
vn -0.99904821 -1.6047608e-17 -4.3619586e-2
g cube2_hedge
usemtl hedge
f 1//1 54//54 149//149 53//53
f 1//1 55//55 54//54
f 2//2 102//102 171//171 56//56
f 3//3 68//68 155//155 58//58
f 4//4 66//66 10//10 65//65 60//60
f 4//4 104//104 181//181 66//66
f 5//5 80//80 193//193 61//61
f 6//6 82//82 169//169 63//63
f 6//6 106//106 165//165 82//82
f 7//7 84//84 189//189 64//64
f 8//8 86//86 70//70
f 8//8 108//108 161//161 86//86
f 9//9 54//54 55//55 17//17 23//23 60//60 65//65
f 9//9 110//110 149//149 54//54
f 10//10 112//112 154//154 65//65
f 11//11 56//56 171//171 73//73
f 11//11 73//73 179//179 67//67
f 12//12 67//67 179//179 74//74
f 12//12 74//74 155//155 68//68
f 13//13 62//62 175//175 77//77
f 13//13 77//77 158//158 69//69
f 14//14 69//69 158//158 78//78
f 14//14 78//78 159//159 70//70
f 15//15 90//90 167//167 71//71
f 15//15 114//114 152//152 63//63
f 16//16 88//88 151//151 72//72
f 16//16 116//116 183//183 71//71
f 17//17 55//55 153//153 95//95
f 17//17 95//95 164//164 79//79
f 18//18 79//79 164//164 96//96
f 18//18 96//96 193//193 80//80
f 19//19 57//57 157//157 99//99
f 19//19 99//99 168//168 81//81
f 19//19 122//122 177//177 57//57
f 20//20 81//81 168//168 100//100
f 20//20 100//100 169//169 82//82
f 20//20 124//124 191//191 81//81
f 21//21 59//59 150//150 91//91
f 21//21 91//91 160//160 83//83
f 22//22 83//83 160//160 92//92
f 22//22 92//92 189//189 84//84
f 23//23 118//118 173//173 60//60
f 24//24 85//85 79//79 18//18
f 24//24 120//120 187//187 85//85
f 25//25 94//94 162//162 87//87
f 25//25 97//97 156//156 75//75
f 26//26 93//93 151//151 88//88
f 26//26 98//98 166//166 87//87
f 27//27 76//76 156//156 97//97
f 27//27 97//97 166//166 89//89
f 27//27 99//99 157//157 76//76
f 28//28 89//89 166//166 98//98
f 28//28 98//98 167//167 90//90
f 28//28 100//100 168//168 89//89
f 29//29 53//53 149//149 125//125
f 29//29 125//125 170//170 101//101
f 29//29 131//131 153//153 53//53
f 30//30 101//101 170//170 126//126
f 30//30 126//126 171//171 102//102
f 30//30 132//132 176//176 101//101
f 31//31 58//58 155//155 135//135
f 31//31 127//127 150//150 58//58
f 31//31 135//135 180//180 103//103
f 32//32 103//103 180//180 136//136
f 32//32 128//128 172//172 103//103
f 32//32 136//136 181//181 104//104
f 33//33 148//148 192//192 105//105
f 34//34 147//147 165//165 106//106
f 35//35 144//144 188//188 107//107
f 36//36 143//143 161//161 108//108
f 37//37 126//126 170//170 109//109
f 38//38 125//125 149//149 110//110
f 39//39 134//134 178//178 111//111
f 39//39 135//135 155//155 74//74
f 40//40 133//133 154//154 112//112
f 40//40 136//136 180//180 111//111
f 41//41 130//130 174//174 113//113
f 41//41 137//137 158//158 77//77
f 42//42 129//129 152//152 114//114
f 42//42 138//138 182//182 113//113
f 43//43 78//78 158//158 137//137
f 43//43 137//137 182//182 115//115
f 43//43 139//139 159//159 78//78
f 44//44 115//115 182//182 138//138
f 44//44 138//138 183//183 116//116
f 44//44 140//140 184//184 115//115
f 45//45 91//91 150//150 127//127
f 45//45 127//127 172//172 117//117
f 45//45 141//141 160//160 91//91
f 46//46 117//117 172//172 128//128
f 46//46 128//128 173//173 118//118
f 46//46 142//142 186//186 117//117
f 47//47 92//92 160//160 141//141
f 47//47 141//141 186//186 119//119
f 48//48 119//119 186//186 142//142
f 48//48 142//142 187//187 120//120
f 49//49 95//95 153//153 131//131
f 49//49 131//131 176//176 121//121
f 49//49 145//145 164//164 95//95
f 50//50 121//121 176//176 132//132
f 50//50 132//132 177//177 122//122
f 50//50 146//146 190//190 121//121
f 51//51 96//96 164//164 145//145
f 51//51 145//145 190//190 123//123
f 52//52 123//123 190//190 146//146
f 52//52 146//146 191//191 124//124
f 53//53 153//153 55//55 1//1
f 56//56 157//157 57//57 2//2
f 57//57 177//177 102//102 2//2
f 58//58 150//150 59//59 3//3
f 59//59 163//163 68//68 3//3
f 60//60 173//173 104//104 4//4
f 61//61 175//175 62//62 5//5
f 61//61 193//193 148//148 33//33
f 62//62 13//13 69//69 80//80 5//5
f 63//63 152//152 106//106 6//6
f 63//63 169//169 90//90 15//15
f 64//64 185//185 72//72 7//7
f 64//64 189//189 144//144 35//35
f 65//65 154//154 110//110 9//9
f 66//66 181//181 112//112 10//10
f 67//67 156//156 76//76 11//11
f 68//68 163//163 75//75 12//12
f 70//70 86//86 24//24 18//18 80//80 69//69 14//14
f 70//70 159//159 108//108 8//8
f 71//71 167//167 88//88 16//16
f 71//71 183//183 114//114 15//15
f 72//72 151//151 84//84 7//7
f 72//72 185//185 116//116 16//16
f 73//73 171//171 126//126 37//37
f 74//74 179//179 134//134 39//39
f 75//75 156//156 67//67 12//12
f 75//75 163//163 94//94 25//25
f 76//76 157//157 56//56 11//11
f 77//77 175//175 130//130 41//41
f 79//79 85//85 23//23 17//17
f 81//81 191//191 122//122 19//19
f 82//82 165//165 124//124 20//20
f 83//83 162//162 94//94 21//21
f 84//84 151//151 93//93 22//22
f 85//85 187//187 118//118 23//23
f 86//86 161//161 120//120 24//24
f 87//87 162//162 93//93 26//26
f 87//87 166//166 97//97 25//25
f 88//88 167//167 98//98 26//26
f 89//89 168//168 99//99 27//27
f 90//90 169//169 100//100 28//28
f 93//93 162//162 83//83 22//22
f 94//94 163//163 59//59 21//21
f 101//101 176//176 131//131 29//29
f 102//102 177//177 132//132 30//30
f 103//103 172//172 127//127 31//31
f 104//104 173//173 128//128 32//32
f 105//105 174//174 130//130 33//33
f 105//105 192//192 147//147 34//34
f 106//106 152//152 129//129 34//34
f 107//107 184//184 140//140 35//35
f 107//107 188//188 143//143 36//36
f 108//108 159//159 139//139 36//36
f 109//109 170//170 125//125 38//38
f 109//109 178//178 134//134 37//37
f 110//110 154//154 133//133 38//38
f 111//111 178//178 133//133 40//40
f 111//111 180//180 135//135 39//39
f 112//112 181//181 136//136 40//40
f 113//113 174//174 129//129 42//42
f 113//113 182//182 137//137 41//41
f 114//114 183//183 138//138 42//42
f 115//115 184//184 139//139 43//43
f 116//116 185//185 140//140 44//44
f 117//117 186//186 141//141 45//45
f 118//118 187//187 142//142 46//46
f 119//119 188//188 144//144 47//47
f 120//120 161//161 143//143 48//48
f 121//121 190//190 145//145 49//49
f 122//122 191//191 146//146 50//50
f 123//123 192//192 148//148 51//51
f 124//124 165//165 147//147 52//52
f 129//129 174//174 105//105 34//34
f 130//130 175//175 61//61 33//33
f 133//133 178//178 109//109 38//38
f 134//134 179//179 73//73 37//37
f 139//139 184//184 107//107 36//36
f 140//140 185//185 64//64 35//35
f 143//143 188//188 119//119 48//48
f 144//144 189//189 92//92 47//47
f 147//147 192//192 123//123 52//52
f 148//148 193//193 96//96 51//51
