# Exported from Wings 3D 0.98.29b
mtllib tomato-eat4.mtl
o cylinder12_copy14
#16 vertices, 10 faces
v 7.1818060e-2 3.72615931 -0.36648327
v 0.13629716 3.76769084 -0.30720766
v 0.14750395 3.86795681 -0.18768216
v 9.8873652e-2 3.96822278 -7.7923199e-2
v 2.6256673e-2 3.97029766 -8.7340075e-2
v -4.5585874e-2 3.96822278 -0.10150169
v -5.6792667e-2 3.86795681 -0.22102719
v -8.1623656e-3 3.76769084 -0.33078615
v 6.6892003e-2 3.69073194 -0.33630256
v 0.13137110 3.73226347 -0.27702695
v 0.14257790 3.83252944 -0.15750145
v 9.3947595e-2 3.93279541 -4.7742485e-2
v 2.1330617e-2 3.93487029 -5.7159361e-2
v -5.0511931e-2 3.93279541 -7.1320979e-2
v -6.1718724e-2 3.83252944 -0.19084648
v -1.3088422e-2 3.73226347 -0.30060544
vn 0.15978645 -0.12681890 -0.97897153
vn 0.85813621 6.4028870e-2 -0.50941393
vn 0.92711724 0.34374256 -0.14931402
vn 0.52098235 0.82453061 0.22074118
vn -6.1939767e-2 0.92312038 0.37948944
vn -0.56413269 0.82453061 4.3630130e-2
vn -0.83152474 0.34374256 -0.43635725
vn -0.65162394 6.4028870e-2 -0.75583500
vn 4.3551820e-2 -0.96275875 -0.26683109
vn 0.75976047 -0.64347289 9.3309592e-2
vn 0.83152474 -0.34374256 0.43635725
vn 0.40800938 1.2048082e-2 0.91289823
vn -0.15615588 0.24553395 0.95672798
vn -0.67710565 1.2048082e-2 0.73578718
vn -0.92711724 -0.34374256 0.14931402
vn -0.74999968 -0.64347289 -0.15311148
g cylinder12_copy14_stalk
usemtl stalk
f 1//1 8//8 7//7 6//6 5//5 4//4 3//3 2//2
f 1//1 9//9 16//16 8//8
f 2//2 10//10 9//9 1//1
f 3//3 11//11 10//10 2//2
f 4//4 12//12 11//11 3//3
f 5//5 13//13 12//12 4//4
f 6//6 14//14 13//13 5//5
f 7//7 15//15 14//14 6//6
f 8//8 16//16 15//15 7//7
f 10//10 11//11 12//12 13//13 14//14 15//15 16//16 9//9
o cylinder12_copy17
#16 vertices, 10 faces
v 1.2132522e-2 1.37733171 -0.45541641
v 9.8010078e-2 1.41886323 -0.43820600
v 0.16961435 1.51912920 -0.34184852
v 0.18500052 1.61939518 -0.22278886
v 0.11803935 1.62147005 -0.19315602
v 4.9278030e-2 1.61939518 -0.16798096
v -2.2326240e-2 1.51912920 -0.26433845
v -3.7712414e-2 1.41886323 -0.38339811
v 2.3583074e-2 1.34190434 -0.42706105
v 0.10946063 1.38343586 -0.40985064
v 0.18106490 1.48370184 -0.31349316
v 0.19645107 1.58396781 -0.19443350
v 0.12948991 1.58604268 -0.16480066
v 6.0728583e-2 1.58396781 -0.13962561
v -1.0875688e-2 1.48370184 -0.23598309
v -2.6261861e-2 1.38343586 -0.35504275
vn -0.37142145 -0.12681890 -0.91976251
vn 0.46920679 6.4028870e-2 -0.88076404
vn 0.71503718 0.34374256 -0.60873876
vn 0.55989437 0.82453061 -8.1655176e-2
vn 0.14397816 0.92312038 0.35653760
vn -0.45959199 0.82453061 0.33003709
vn -0.93724065 0.34374256 5.8489386e-2
vn -0.94924179 6.4028870e-2 -0.30796157
vn -0.10123562 -0.96275875 -0.25069292
vn 0.69787988 -0.64347289 -0.31449374
vn 0.93724065 -0.34374256 -5.8489386e-2
vn 0.82249852 1.2048082e-2 0.56863964
vn 0.36298226 0.24553395 0.89886426
vn -0.19698785 1.2048082e-2 0.98033190
vn -0.71503718 -0.34374256 0.60873876
vn -0.72056870 -0.64347289 0.25830873
g cylinder12_copy17_stalk
usemtl stalk
f 17//17 24//24 23//23 22//22 21//21 20//20 19//19 18//18
f 17//17 25//25 32//32 24//24
f 18//18 26//26 25//25 17//17
f 19//19 27//27 26//26 18//18
f 20//20 28//28 27//27 19//19
f 21//21 29//29 28//28 20//20
f 22//22 30//30 29//29 21//21
f 23//23 31//31 30//30 22//22
f 24//24 32//32 31//31 23//23
f 26//26 27//27 28//28 29//29 30//30 31//31 32//32 25//25
o cylinder12_copy16
#16 vertices, 10 faces
v -4.9313906e-2 2.24340661 0.34258853
v -0.12121488 2.28493814 0.29257450
v -0.14847825 2.38520411 0.17566152
v -0.11513349 2.48547008 6.0335620e-2
v -4.1910096e-2 2.48754496 5.9848454e-2
v 3.1187453e-2 2.48547008 6.4167168e-2
v 5.8450819e-2 2.38520411 0.18108015
v 2.5106064e-2 2.28493814 0.29640605
v -4.8513413e-2 2.20797924 0.31201892
v -0.12041439 2.24951077 0.26200490
v -0.14767775 2.34977674 0.14509192
v -0.11433300 2.45004271 2.9766014e-2
v -4.1109603e-2 2.45211759 2.9278848e-2
v 3.1987947e-2 2.45004271 3.3597563e-2
v 5.9251312e-2 2.34977674 0.15051055
v 2.5906557e-2 2.24951077 0.26583645
vn -2.5965593e-2 -0.12681890 0.99158598
vn -0.78138632 6.4028870e-2 0.62075415
vn -0.89841838 0.34374256 0.27328641
vn -0.54604259 0.82453061 -0.14827936
vn 1.0065327e-2 0.92312038 -0.38437931
vn 0.55305460 0.82453061 -0.11949849
vn 0.88288442 0.34374256 0.31993147
vn 0.74782770 6.4028870e-2 0.66079803
vn -7.0772511e-3 -0.96275875 0.27026932
vn -0.76540008 -0.64347289 1.0264289e-2
vn -0.88288442 -0.34374256 -0.31993147
vn -0.52768427 1.2048082e-2 -0.84935514
vn 2.5375619e-2 0.24553395 -0.96905581
vn 0.57141291 1.2048082e-2 -0.82057427
vn 0.89841838 -0.34374256 -0.27328641
vn 0.76381394 -0.64347289 5.0308167e-2
g cylinder12_copy16_stalk
usemtl stalk
f 33//33 40//40 39//39 38//38 37//37 36//36 35//35 34//34
f 33//33 41//41 48//48 40//40
f 34//34 42//42 41//41 33//33
f 35//35 43//43 42//42 34//34
f 36//36 44//44 43//43 35//35
f 37//37 45//45 44//44 36//36
f 38//38 46//46 45//45 37//37
f 39//39 47//47 46//46 38//38
f 40//40 48//48 47//47 39//39
f 42//42 43//43 44//44 45//45 46//46 47//47 48//48 41//41
o cylinder12_copy15
#16 vertices, 10 faces
v 0.38425076 1.65753380 0.13211208
v 0.29683634 1.69906533 0.13757755
v 0.20284998 1.79933130 6.2888186e-2
v 0.15734762 1.89959728 -4.8203990e-2
v 0.21442971 1.90167215 -9.4068329e-2
v 0.27439834 1.89959728 -0.13608816
v 0.36838470 1.79933130 -6.1398801e-2
v 0.41388706 1.69906533 4.9693375e-2
v 0.36588986 1.62210644 0.10765765
v 0.27847544 1.66363796 0.11312312
v 0.18448908 1.76390393 3.8433762e-2
v 0.13898671 1.86416991 -7.2658414e-2
v 0.19606881 1.86624478 -0.11852275
v 0.25603744 1.86416991 -0.16054259
v 0.35002380 1.76390393 -8.5853225e-2
v 0.39552616 1.66363796 2.5238951e-2
vn 0.59557237 -0.12681890 0.79322792
vn -0.22678729 6.4028870e-2 0.97183735
vn -0.53433336 0.34374256 0.77222336
vn -0.52003340 0.82453061 0.22296758
vn -0.23086823 0.92312038 -0.30748761
vn 0.35919905 0.82453061 -0.43717882
vn 0.89063547 0.34374256 -0.29767350
vn 0.99652090 6.4028870e-2 5.3351577e-2
vn 0.16233079 -0.96275875 0.21620431
vn -0.59346340 -0.64347289 0.48347062
vn -0.89063547 -0.34374256 0.29767350
vn -0.94111777 1.2048082e-2 -0.33786415
vn -0.58204016 0.24553395 -0.77520471
vn -6.1885321e-2 1.2048082e-2 -0.99801055
vn 0.53433336 -0.34374256 -0.77222336
vn 0.62984479 -0.64347289 -0.43501515
g cylinder12_copy15_stalk
usemtl stalk
f 49//49 56//56 55//55 54//54 53//53 52//52 51//51 50//50
f 49//49 57//57 64//64 56//56
f 50//50 58//58 57//57 49//49
f 51//51 59//59 58//58 50//50
f 52//52 60//60 59//59 51//51
f 53//53 61//61 60//60 52//52
f 54//54 62//62 61//61 53//53
f 55//55 63//63 62//62 54//54
f 56//56 64//64 63//63 55//55
f 58//58 59//59 60//60 61//61 62//62 63//63 64//64 57//57
o cylinder12_copy14
#16 vertices, 10 faces
v -0.31142925 3.78203895 0.15598434
v -0.30119193 3.82357048 6.8999575e-2
v -0.21091503 3.92383645 -1.0133333e-2
v -9.3481523e-2 4.02410242 -3.5059396e-2
v -5.8551459e-2 4.02617730 2.9297372e-2
v -2.7919690e-2 4.02410242 9.5807506e-2
v -0.11819659 3.92383645 0.17494041
v -0.23563010 3.82357048 0.19986648
v -0.28408833 3.74661158 0.14228706
v -0.27385101 3.78814311 5.5302292e-2
v -0.18357411 3.88840908 -2.3830616e-2
v -6.6140602e-2 3.98867505 -4.8756679e-2
v -3.1210537e-2 3.99074993 1.5600090e-2
v -5.7876824e-4 3.98867505 8.2110223e-2
v -9.0855672e-2 3.88840908 0.16124313
v -0.20828918 3.78814311 0.18616919
vn -0.88685720 -0.12681890 0.44429862
vn -0.91569541 6.4028870e-2 -0.39673948
vn -0.66435486 0.34374256 -0.66368190
vn -0.12648760 0.82453061 -0.55149811
vn 0.34378215 0.92312038 -0.17222833
vn 0.36598343 0.82453061 0.43151524
vn 0.13379114 0.34374256 0.92948426
vn -0.23050250 6.4028870e-2 0.97096287
vn -0.24172416 -0.96275875 0.12109922
vn -0.36968393 -0.64347289 -0.67028086
vn -0.13379114 -0.34374256 -0.92948426
vn 0.50054235 1.2048082e-2 -0.86562821
vn 0.86670661 0.24553395 -0.43420356
vn 0.99301338 1.2048082e-2 0.11738514
vn 0.66435486 -0.34374256 0.66368190
vn 0.31550898 -0.64347289 0.69742148
g cylinder12_copy14_stalk
usemtl stalk
f 65//65 72//72 71//71 70//70 69//69 68//68 67//67 66//66
f 65//65 73//73 80//80 72//72
f 66//66 74//74 73//73 65//65
f 67//67 75//75 74//74 66//66
f 68//68 76//76 75//75 67//67
f 69//69 77//77 76//76 68//68
f 70//70 78//78 77//77 69//69
f 71//71 79//79 78//78 70//70
f 72//72 80//80 79//79 71//71
f 74//74 75//75 76//76 77//77 78//78 79//79 80//80 73//73
o cylinder12_copy13
#16 vertices, 10 faces
v -0.41916530 1.38146910 0.28760707
v -0.49232565 1.42300062 0.23945402
v -0.52257928 1.52326659 0.12327891
v -0.49220401 1.62353257 7.1355533e-3
v -0.41901721 1.62560744 4.7701094e-3
v -0.34583293 1.62353257 7.2121930e-3
v -0.31557930 1.52326659 0.12338730
v -0.34595457 1.42300062 0.23953066
v -0.41914929 1.34604173 0.25702699
v -0.49230964 1.38757325 0.20887394
v -0.52256326 1.48783923 9.2698832e-2
v -0.49218800 1.58810520 -2.3444527e-2
v -0.41900120 1.59018007 -2.5809971e-2
v -0.34581692 1.58810520 -2.3367887e-2
v -0.31556329 1.48783923 9.2807217e-2
v -0.34593856 1.38757325 0.20895058
vn -5.1937116e-4 -0.12681890 0.99192575
vn -0.76520463 6.4028870e-2 0.64059517
vn -0.89111195 0.34374256 0.29624407
vn -0.54966677 0.82453061 -0.13422264
vn 2.0132952e-4 0.92312038 -0.38451102
vn 0.54980703 0.82453061 -0.13364696
vn 0.89080123 0.34374256 0.29717708
vn 0.76453338 6.4028870e-2 0.64139614
vn -1.4156119e-4 -0.96275875 0.27036193
vn -0.76488487 -0.64347289 2.9896121e-2
vn -0.89080123 -0.34374256 -0.29717708
vn -0.54929956 1.2048082e-2 -0.83553865
vn 5.0757034e-4 0.24553395 -0.96938786
vn 0.55017424 1.2048082e-2 -0.83496297
vn 0.89111195 -0.34374256 -0.29624407
vn 0.76485315 -0.64347289 3.0697090e-2
g cylinder12_copy13_stalk
usemtl stalk
f 81//81 88//88 87//87 86//86 85//85 84//84 83//83 82//82
f 81//81 89//89 96//96 88//88
f 82//82 90//90 89//89 81//81
f 83//83 91//91 90//90 82//82
f 84//84 92//92 91//91 83//83
f 85//85 93//93 92//92 84//84
f 86//86 94//94 93//93 85//85
f 87//87 95//95 94//94 86//86
f 88//88 96//96 95//95 87//87
f 90//90 91//91 92//92 93//93 94//94 95//95 96//96 89//89
o cylinder12
#16 vertices, 10 faces
v 0.21971538 0.83284379 0.30390019
v 0.17160065 0.87437532 0.37708574
v 5.5441401e-2 0.97464129 0.40740019
v -6.0717846e-2 1.07490726 0.37708574
v -6.3121610e-2 1.07698213 0.30390019
v -6.0717846e-2 1.07490726 0.23071464
v 5.5441401e-2 0.97464129 0.20040019
v 0.17160065 0.87437532 0.23071464
v 0.18913530 0.79741642 0.30390019
v 0.14102056 0.83894795 0.37708574
v 2.4861317e-2 0.93921392 0.40740019
v -9.1297930e-2 1.03947989 0.37708574
v -9.3701694e-2 1.04155477 0.30390019
v -9.1297930e-2 1.03947989 0.23071464
v 2.4861317e-2 0.93921392 0.20040019
v 0.14102056 0.83894795 0.23071464
vn 0.99192589 -0.12681890 1.2260049e-16
vn 0.64099574 6.4028870e-2 0.76486911
vn 0.29671062 0.34374256 0.89095671
vn -0.13393482 0.82453061 0.54973698
vn -0.38451108 0.92312038 -6.2110054e-17
vn -0.13393482 0.82453061 -0.54973698
vn 0.29671062 0.34374256 -0.89095671
vn 0.64099574 6.4028870e-2 -0.76486911
vn 0.27036196 -0.96275875 2.4520099e-16
vn 3.0296610e-2 -0.64347289 0.76486911
vn -0.29671062 -0.34374256 0.89095671
vn -0.83525092 1.2048082e-2 0.54973698
vn -0.96938799 0.24553395 4.3477038e-17
vn -0.83525092 1.2048082e-2 -0.54973698
vn -0.29671062 -0.34374256 -0.89095671
vn 3.0296610e-2 -0.64347289 -0.76486911
g cylinder12_stalk
usemtl stalk
f 97//97 104//104 103//103 102//102 101//101 100//100 99//99 98//98
f 97//97 105//105 112//112 104//104
f 98//98 106//106 105//105 97//97
f 99//99 107//107 106//106 98//98
f 100//100 108//108 107//107 99//99
f 101//101 109//109 108//108 100//100
f 102//102 110//110 109//109 101//101
f 103//103 111//111 110//110 102//102
f 104//104 112//112 111//111 103//103
f 106//106 107//107 108//108 109//109 110//110 111//111 112//112 105//105
o sphere6_copy10
#14 vertices, 16 faces
v -8.3287983e-2 2.35002169 -0.59724091
v 5.8825735e-2 2.35002169 -0.33352766
v -0.20488751 2.35002169 -0.19141394
v -0.34700123 2.35002169 -0.45512719
v -5.8103896e-2 2.13819512 -0.68129042
v 0.14287525 2.13819512 -0.30834357
v -0.23007160 2.13819512 -0.10736442
v -0.43105075 2.13819512 -0.48031128
v -8.3287983e-2 1.92636856 -0.59724091
v 5.8825735e-2 1.92636856 -0.33352766
v -0.20488751 1.92636856 -0.19141394
v -0.34700123 1.92636856 -0.45512719
v -0.14408775 2.43776312 -0.39432742
v -0.14408775 1.83862712 -0.39432742
vn 0.19267304 0.74120979 -0.64302810
vn 0.64302810 0.74120979 0.19267304
vn -0.19267304 0.74120979 0.64302810
vn -0.64302810 0.74120979 -0.19267304
vn 0.28702616 -3.6811198e-16 -0.95792274
vn 0.95792274 -3.0675998e-16 0.28702616
vn -0.28702616 -6.5442130e-16 0.95792274
vn -0.95792274 -7.1577330e-16 -0.28702616
vn 0.19267304 -0.74120979 -0.64302810
vn 0.64302810 -0.74120979 0.19267304
vn -0.19267304 -0.74120979 0.64302810
vn -0.64302810 -0.74120979 -0.19267304
vn 6.4334185e-17 1.00000000 -5.4684057e-16
vn 0.0000000e+0 -1.00000000 -3.3775447e-16
g sphere6_copy10_tomato
usemtl tomato
f 113//113 117//117 120//120 116//116
f 113//113 125//125 114//114
f 114//114 118//118 117//117 113//113
f 114//114 125//125 115//115
f 115//115 119//119 118//118 114//114
f 115//115 125//125 116//116
f 116//116 120//120 119//119 115//115
f 116//116 125//125 113//113
f 117//117 121//121 124//124 120//120
f 118//118 122//122 121//121 117//117
f 119//119 123//123 122//122 118//118
f 120//120 124//124 123//123 119//119
f 121//121 126//126 124//124
f 122//122 126//126 121//121
f 123//123 126//126 122//122
f 124//124 126//126 123//123
o cylinder5
#42 vertices, 31 faces
v 6.8000000e-2 4.00000000 3.1041836e-17
v 2.1013156e-2 4.00000000 6.4671843e-2
v -5.5013156e-2 4.00000000 3.9969397e-2
v -5.5013156e-2 4.00000000 -3.9969397e-2
v 2.1013156e-2 4.00000000 -6.4671843e-2
v 6.8000000e-2 0.0000000e+0 3.1041836e-17
v 2.1013156e-2 0.0000000e+0 6.4671843e-2
v -5.5013156e-2 0.0000000e+0 3.9969397e-2
v -5.5013156e-2 0.0000000e+0 -3.9969397e-2
v 2.1013156e-2 0.0000000e+0 -6.4671843e-2
v 2.1013156e-2 0.74180000 6.4671843e-2
v 2.1013156e-2 0.60200000 6.4671843e-2
v -5.5013156e-2 0.74180000 3.9969397e-2
v -5.5013156e-2 0.60200000 3.9969397e-2
v -0.27886604 1.57220391 0.72891775
v -0.20283973 1.57220391 0.75362020
v -0.20283973 1.71200391 0.75362020
v -0.27886604 1.71200391 0.72891775
v -5.5013156e-2 1.10172767 3.9969397e-2
v -5.5013156e-2 1.10172767 -3.9969397e-2
v -5.5013156e-2 1.21247623 -3.9969397e-2
v -5.5013156e-2 1.21247623 3.9969397e-2
v -0.70926628 2.12110759 3.9969397e-2
v -0.70926628 2.12110759 -3.9969397e-2
v -0.70926628 2.01035903 -3.9969397e-2
v -0.70926628 2.01035903 3.9969397e-2
v 2.1013156e-2 1.50000000 -6.4671843e-2
v 6.8000000e-2 1.50000000 3.1041836e-17
v 6.8000000e-2 1.36650000 3.1041836e-17
v 2.1013156e-2 1.36650000 -6.4671843e-2
v 0.49050608 2.25489673 -0.30696863
v 0.44351923 2.25489673 -0.37164048
v 0.44351923 2.38839673 -0.37164048
v 0.49050608 2.38839673 -0.30696863
v 2.1013156e-2 1.94879322 -6.4671843e-2
v -5.5013156e-2 1.94879322 -3.9969397e-2
v 2.1013156e-2 2.08334769 -6.4671843e-2
v -5.5013156e-2 2.08334769 -3.9969397e-2
v -0.16696886 2.72122040 -0.38453364
v -9.0942552e-2 2.72122040 -0.40923608
v -9.0942552e-2 2.58666593 -0.40923608
v -0.16696886 2.58666593 -0.38453364
vn 0.85065081 0.52573111 -5.8367879e-17
vn 0.26286556 0.52573111 0.80901699
vn -0.68819096 0.52573111 0.50000000
vn -0.68819096 0.52573111 -0.50000000
vn 0.26286556 0.52573111 -0.80901699
vn 0.85065081 -0.52573111 -5.8367879e-17
vn 0.26286556 -0.52573111 0.80901699
vn -0.68819096 -0.52573111 0.50000000
vn -0.68819096 -0.52573111 -0.50000000
vn 0.26286556 -0.52573111 -0.80901699
vn 0.80775893 0.28449751 0.51632032
vn 0.40994406 -0.20379960 0.88905095
vn -0.95697617 0.28449751 -5.7076880e-2
vn -0.85422275 -0.20379960 0.47829826
vn -0.70276508 -0.27887192 0.65448583
vn 0.18385177 -0.27887192 0.94256511
vn 0.75258390 0.50610490 0.42127817
vn -0.85647426 0.50610490 -0.10153652
vn -0.72122332 -0.19873784 0.66358134
vn -0.72122332 -0.19873784 -0.66358134
vn -0.23729294 0.27870765 -0.93059879
vn -0.23729294 0.27870765 0.93059879
vn -0.16062330 0.49796058 0.85219447
vn -0.16062330 0.49796058 -0.85219447
vn -0.84251767 -0.27176443 -0.46508931
vn -0.84251767 -0.27176443 0.46508931
vn -0.38029832 0.24544119 -0.89170163
vn 0.73054000 0.24544119 0.63723616
vn 0.97996320 -0.17105653 0.10203818
vn 0.20578120 -0.17105653 -0.96353192
vn 0.96352714 -0.23315943 -0.13134740
vn 0.42266506 -0.23315943 -0.87578018
vn -0.42159426 0.44865909 -0.78801224
vn 0.61916439 0.44865909 0.64446914
vn 0.39864876 -0.16651692 -0.90185990
vn -0.85261357 -0.16651692 -0.49530012
vn 0.83482581 0.23974243 -0.49556981
vn -0.96667689 0.23974243 8.9773904e-2
vn -0.88285834 0.43981512 0.16469308
vn 0.81105157 0.43981512 -0.38569161
vn 0.17149712 -0.22686617 -0.95870771
vn -0.70225834 -0.22686617 -0.67480736
g cylinder5_stalk
usemtl stalk
f 127//127 131//131 130//130 129//129 128//128
f 127//127 154//154 153//153 161//161 163//163 131//131
f 128//128 137//137 138//138 133//133 132//132 155//155 154//154 127//127
f 129//129 148//148 145//145 139//139 137//137 128//128
f 130//130 164//164 162//162 147//147 148//148 129//129
f 131//131 163//163 164//164 130//130
f 133//133 134//134 135//135 136//136 132//132
f 133//133 138//138 140//140 134//134
f 134//134 140//140 139//139 145//145 146//146 135//135
f 135//135 146//146 147//147 162//162 161//161 153//153 156//156 136//136
f 136//136 156//156 155//155 132//132
f 137//137 143//143 142//142 138//138
f 138//138 142//142 141//141 140//140
f 139//139 144//144 143//143 137//137
f 140//140 141//141 144//144 139//139
f 142//142 143//143 144//144 141//141
f 145//145 152//152 151//151 146//146
f 146//146 151//151 150//150 147//147
f 147//147 150//150 149//149 148//148
f 148//148 149//149 152//152 145//145
f 150//150 151//151 152//152 149//149
f 153//153 159//159 158//158 156//156
f 154//154 160//160 159//159 153//153
f 155//155 157//157 160//160 154//154
f 156//156 158//158 157//157 155//155
f 158//158 159//159 160//160 157//157
f 161//161 167//167 166//166 163//163
f 162//162 168//168 167//167 161//161
f 163//163 166//166 165//165 164//164
f 164//164 165//165 168//168 162//162
f 166//166 167//167 168//168 165//165
o cube2
#8 vertices, 6 faces
v 4.3427314e-2 -5.1892656e-18 0.13267732
v 4.3427314e-2 6.00000000 0.13267732
v 0.13942731 6.00000000 0.13267732
v 0.13942731 -5.1892656e-18 0.13267732
v 4.3427314e-2 -5.1892656e-18 3.6677321e-2
v 4.3427314e-2 6.00000000 3.6677321e-2
v 0.13942731 6.00000000 3.6677321e-2
v 0.13942731 -5.1892656e-18 3.6677321e-2
vn 0.0000000e+0 0.0000000e+0 1.00000000
vn 0.0000000e+0 -1.00000000 0.0000000e+0
vn -1.00000000 0.0000000e+0 0.0000000e+0
vn 0.0000000e+0 0.0000000e+0 1.00000000
vn 0.0000000e+0 1.00000000 0.0000000e+0
vn -1.00000000 0.0000000e+0 0.0000000e+0
vn 0.0000000e+0 0.0000000e+0 1.00000000
vn 1.00000000 0.0000000e+0 0.0000000e+0
vn 0.0000000e+0 1.00000000 0.0000000e+0
vn 0.0000000e+0 0.0000000e+0 1.00000000
vn 1.00000000 0.0000000e+0 0.0000000e+0
vn 0.0000000e+0 -1.00000000 0.0000000e+0
vn 0.0000000e+0 -1.00000000 0.0000000e+0
vn 0.0000000e+0 0.0000000e+0 -1.00000000
vn -1.00000000 0.0000000e+0 0.0000000e+0
vn 0.0000000e+0 1.00000000 0.0000000e+0
vn 0.0000000e+0 0.0000000e+0 -1.00000000
vn -1.00000000 0.0000000e+0 0.0000000e+0
vn 1.00000000 0.0000000e+0 0.0000000e+0
vn 0.0000000e+0 1.00000000 0.0000000e+0
vn 0.0000000e+0 0.0000000e+0 -1.00000000
vn 1.00000000 0.0000000e+0 0.0000000e+0
vn 0.0000000e+0 -1.00000000 0.0000000e+0
vn 0.0000000e+0 0.0000000e+0 -1.00000000
g cube2_stake
usemtl stake
f 169//169 172//178 171//175 170//172
f 169//170 173//181 176//191 172//180
f 170//174 174//186 173//183 169//171
f 171//177 175//188 174//184 170//173
f 172//179 176//190 175//187 171//176
f 174//185 175//189 176//192 173//182
