# 3ds Max Wavefront OBJ Exporter v0.97b - (c)2007 guruware
# File Created: 25.08.2012 16:14:38

mtllib 5.mtl

#
# object Cylinder001
#

v  -52.1155 5.4113 3.3454
v  -52.1155 1.3365 7.5171
v  -4.9995 1.3365 7.5171
v  -4.9995 5.4113 3.3454
v  -52.1155 -3.7447 6.0283
v  -4.9995 -3.7447 6.0283
v  -52.1155 -6.0061 -0.0000
v  -4.9995 -6.0061 -0.0000
v  -183.9478 -2.1149 3.8496
v  -183.9478 -2.1149 -0.0000
v  -180.9741 -3.6915 -0.0000
v  9.5407 -1.0035 1.9264
v  9.5407 -1.6640 4.3285
v  9.5407 -2.4877 3.4712
v  9.5407 -1.0035 -0.0000
v  9.5407 -2.8542 -0.0000
v  1.5710 -0.5106 4.3285
v  1.5710 1.8662 1.9264
v  1.5710 -3.4744 3.4712
v  1.5710 -4.7934 -0.0000
v  7.0591 -0.5106 4.3285
v  7.0591 1.8662 1.9264
v  7.0591 -3.4744 3.4712
v  7.0591 -4.7934 -0.0000
v  8.5641 -1.3342 4.3285
v  8.5641 0.3318 1.9264
v  8.5641 -3.4117 3.4712
v  8.5641 -4.3363 -0.0000
v  -102.1155 -3.7447 6.0283
v  -102.1155 -6.0061 -0.0000
v  -102.1155 1.3365 7.5171
v  -102.1155 5.4113 3.3454
v  -52.1155 5.4113 -0.0000
v  -102.1155 5.4113 -0.0000
v  -152.1155 -3.3852 5.5079
v  -152.1155 -5.4295 -0.0000
v  -152.1155 1.2082 6.8683
v  -152.1155 4.8918 3.0567
v  -152.1155 4.8918 -0.0000
v  -162.1155 -3.3852 5.5079
v  -162.1155 -5.4295 -0.0000
v  -162.1155 1.2082 6.8683
v  -162.1155 4.8918 3.0567
v  -162.1155 4.8918 -0.0000
v  -165.2248 -3.1352 4.7900
v  -165.2248 -5.3965 -0.0000
v  -165.2248 1.3365 5.9731
v  -165.2248 4.6842 2.6583
v  -165.2248 4.6842 -0.0000
v  -165.7806 -5.8060 4.7243
v  -165.7806 -5.2686 5.3587
v  -168.2643 -5.0912 5.3111
v  -168.2643 -5.6286 4.6768
v  -174.6189 1.3365 5.9731
v  -175.2248 -0.5305 5.3816
v  -175.2248 -2.3975 4.7900
v  -175.2248 4.6842 2.6583
v  -175.2248 2.4460 5.7365
v  -175.2248 4.6842 -0.0000
v  -174.6189 1.3365 -0.0000
v  -175.2248 -0.5305 -0.0000
v  -183.8846 4.0772 2.6583
v  -183.8846 4.0772 -0.0000
v  -187.6957 2.5601 -0.0000
v  -184.5920 2.5601 4.3157
v  -175.2248 -4.6589 -0.0000
v  -184.3711 -0.5855 4.3250
v  -187.4749 -0.5855 -0.0000
v  -175.2248 2.4460 -0.0000
v  -166.3325 -3.6291 3.5706
v  -166.3325 -4.7391 1.2194
v  -174.1171 -3.0549 3.5706
v  -174.1171 -4.1649 1.2194
v  -166.4584 -4.5514 4.4951
v  -166.4584 -5.3540 3.5477
v  -174.2431 -4.2865 4.4241
v  -174.2431 -5.0891 3.4767
v  -4.9995 5.4113 -0.0000
v  1.5710 1.8662 -0.0000
v  7.0591 1.8662 -0.0000
v  8.5641 0.3318 -0.0000
v  -52.1155 5.4113 -3.3454
v  -4.9995 5.4113 -3.3454
v  -4.9995 1.3365 -7.5171
v  -52.1155 1.3365 -7.5171
v  -4.9995 -3.7447 -6.0283
v  -52.1155 -3.7447 -6.0283
v  -183.9478 -2.1149 -3.8496
v  9.5407 -2.4877 -3.4712
v  9.5407 -1.6640 -4.3285
v  9.5407 -1.0035 -1.9264
v  1.5710 1.8662 -1.9264
v  1.5710 -0.5106 -4.3285
v  1.5710 -3.4744 -3.4712
v  7.0591 1.8662 -1.9264
v  7.0591 -0.5106 -4.3285
v  7.0591 -3.4744 -3.4712
v  8.5641 0.3318 -1.9264
v  8.5641 -1.3342 -4.3285
v  8.5641 -3.4117 -3.4712
v  -102.1155 -3.7447 -6.0283
v  -102.1155 1.3365 -7.5171
v  -102.1155 5.4113 -3.3454
v  -152.1155 -3.3852 -5.5079
v  -152.1155 1.2082 -6.8683
v  -152.1155 4.8918 -3.0567
v  -162.1155 -3.3852 -5.5079
v  -162.1155 1.2082 -6.8683
v  -162.1155 4.8918 -3.0567
v  -165.2248 -3.1352 -4.7900
v  -165.2248 1.3365 -5.9731
v  -165.2248 4.6842 -2.6583
v  -165.7806 -5.8060 -4.7243
v  -168.2643 -5.6286 -4.6768
v  -168.2643 -5.0912 -5.3111
v  -165.7806 -5.2686 -5.3587
v  -175.2248 -2.3975 -4.7900
v  -175.2248 -0.5305 -5.3816
v  -174.6189 1.3365 -5.9731
v  -175.2248 2.4460 -5.7365
v  -175.2248 4.6842 -2.6583
v  -183.8846 4.0772 -2.6583
v  -184.5920 2.5601 -4.3157
v  -184.3711 -0.5855 -4.3250
v  -166.3325 -4.7391 -1.2194
v  -166.3325 -3.6291 -3.5706
v  -174.1171 -3.0549 -3.5706
v  -174.1171 -4.1649 -1.2194
v  -166.4584 -5.3540 -3.5477
v  -166.4584 -4.5514 -4.4951
v  -174.2431 -4.2865 -4.4241
v  -174.2431 -5.0891 -3.4767
# 132 vertices

vn 0.0000 0.9010 0.4339
vn 0.0000 0.2225 0.9749
vn -0.0000 -0.6235 0.7818
vn -0.0000 -1.0000 -0.0000
vn -0.5977 -0.7473 0.2902
vn -0.4335 -0.9012 -0.0000
vn -0.4684 -0.8835 -0.0000
vn 1.0000 -0.0000 -0.0000
vn 0.4260 0.5641 0.7074
vn 0.4223 0.5607 0.7122
vn 0.2915 -0.2129 0.9326
vn 0.2935 -0.2101 0.9326
vn 0.1640 -0.8888 0.4280
vn 0.1675 -0.8861 0.4322
vn 0.0000 0.6186 0.7857
vn -0.0000 -0.2198 0.9755
vn -0.0000 -0.8988 0.4384
vn 0.3207 0.5859 0.7442
vn 0.6058 0.5942 0.5291
vn 0.0091 -0.2198 0.9755
vn -0.1652 -0.3018 0.9389
vn 0.2633 -0.8670 0.4230
vn 0.0393 -0.9455 0.3233
vn 0.2446 0.7242 0.6448
vn 0.7902 0.5779 0.2040
vn 0.2781 -0.2940 0.9145
vn -0.2080 -0.6160 0.7598
vn 0.8206 -0.5407 0.1849
vn 0.6840 -0.7229 0.0980
vn -0.0000 -0.9010 0.4339
vn -0.0000 -0.2225 0.9749
vn 0.0000 0.6235 0.7818
vn 0.0000 1.0000 -0.0000
vn -0.0100 -0.9009 0.4339
vn -0.0104 -0.9027 0.4301
vn -0.0093 -0.2225 0.9749
vn -0.0095 -0.2248 0.9744
vn -0.0100 0.6235 0.7818
vn -0.0095 0.6275 0.7785
vn -0.0104 0.9999 -0.0000
vn -0.0000 -0.9028 0.4301
vn -0.0000 -0.2248 0.9744
vn 0.0000 0.6275 0.7786
vn -0.1483 -0.8928 0.4254
vn -0.0091 -0.8552 0.5183
vn -0.2221 -0.2192 0.9501
vn -0.1889 -0.1982 0.9618
vn -0.1188 0.6231 0.7731
vn -0.1507 0.6038 0.7828
vn -0.0666 0.9978 0.0000
vn -0.0666 0.9978 -0.0000
vn -0.0592 -0.6756 0.7349
vn -0.0592 -0.6756 0.7348
vn -0.0000 -0.2018 0.9794
vn -0.0163 -0.2346 0.9720
vn -0.0177 -0.2396 0.9707
vn 0.0000 0.6107 0.7918
vn 0.0684 0.7293 0.6808
vn 0.0000 0.1639 0.9865
vn 0.0000 1.0000 0.0000
vn -0.9512 0.3087 -0.0000
vn -0.9943 -0.1062 0.0000
vn -0.9957 -0.0929 0.0000
vn -0.4842 0.8272 0.2852
vn -0.3698 0.9291 -0.0000
vn -0.4929 0.8701 -0.0000
vn -0.5407 0.6770 0.4992
vn -0.0711 -0.8530 0.5170
vn -0.1564 -0.9296 0.3337
vn -0.0856 -0.2387 0.9673
vn -0.0891 -0.2576 0.9621
vn -0.0045 1.0000 0.0041
vn -0.0060 1.0000 -0.0000
vn -0.0699 0.9976 -0.0000
vn -0.0512 0.7300 0.6815
vn -0.0794 0.6673 0.7406
vn -0.6903 -0.3451 0.6359
vn -0.5666 -0.8240 -0.0000
vn -0.8776 -0.4793 0.0000
vn -0.8776 -0.4793 -0.0000
vn -0.0630 -0.8535 0.5173
vn 0.9942 -0.0921 0.0558
vn 0.9974 -0.0485 0.0528
vn 0.0348 0.4720 0.8809
vn 0.0153 0.6141 0.7891
vn -0.9973 0.0631 -0.0382
vn -0.9955 0.0641 -0.0697
vn -0.0696 -0.9433 -0.3246
vn -0.0268 -0.8841 -0.4666
vn 0.8226 0.3848 -0.4186
vn 0.0201 0.7332 0.6798
vn 0.0396 0.7033 0.7098
vn -0.1735 -0.6666 0.7250
vn -0.0278 -0.9045 -0.4255
vn -0.0687 -0.9889 -0.1316
vn 0.4748 0.8801 0.0000
vn 0.7139 0.7002 0.0000
vn 0.8072 0.5903 0.0000
vn -0.0122 -0.9999 -0.0000
vn -0.0092 -0.9999 0.0084
vn 0.0000 0.9010 -0.4339
vn 0.0000 0.2225 -0.9749
vn -0.0000 -0.6235 -0.7818
vn -0.5977 -0.7473 -0.2902
vn 0.4223 0.5607 -0.7122
vn 0.4260 0.5641 -0.7074
vn 0.2935 -0.2101 -0.9326
vn 0.2915 -0.2129 -0.9326
vn 0.1675 -0.8861 -0.4322
vn 0.1640 -0.8888 -0.4280
vn 0.0000 0.6186 -0.7857
vn -0.0000 -0.2198 -0.9755
vn -0.0000 -0.8988 -0.4384
vn 0.6058 0.5942 -0.5291
vn 0.3207 0.5859 -0.7442
vn -0.1652 -0.3018 -0.9389
vn 0.0091 -0.2198 -0.9755
vn 0.0393 -0.9455 -0.3233
vn 0.2633 -0.8670 -0.4230
vn 0.7902 0.5779 -0.2040
vn 0.2446 0.7242 -0.6448
vn -0.2080 -0.6160 -0.7598
vn 0.2781 -0.2940 -0.9145
vn 0.6840 -0.7229 -0.0980
vn 0.8206 -0.5407 -0.1849
vn -0.0000 -0.9010 -0.4339
vn -0.0000 -0.2225 -0.9749
vn 0.0000 0.6235 -0.7818
vn -0.0104 -0.9027 -0.4301
vn -0.0100 -0.9009 -0.4339
vn -0.0095 -0.2248 -0.9744
vn -0.0093 -0.2225 -0.9749
vn -0.0095 0.6275 -0.7785
vn -0.0100 0.6235 -0.7818
vn -0.0000 -0.9028 -0.4301
vn -0.0000 -0.2248 -0.9744
vn 0.0000 0.6275 -0.7786
vn -0.0091 -0.8552 -0.5183
vn -0.1483 -0.8928 -0.4254
vn -0.1889 -0.1982 -0.9618
vn -0.2221 -0.2192 -0.9501
vn -0.1507 0.6038 -0.7828
vn -0.1188 0.6231 -0.7731
vn -0.0592 -0.6756 -0.7348
vn -0.0592 -0.6756 -0.7349
vn -0.0177 -0.2396 -0.9707
vn -0.0163 -0.2346 -0.9720
vn -0.0000 -0.2018 -0.9794
vn 0.0000 0.1639 -0.9865
vn 0.0684 0.7293 -0.6808
vn 0.0000 0.6107 -0.7918
vn -0.9512 0.3087 0.0000
vn -0.9943 -0.1062 -0.0000
vn -0.4842 0.8272 -0.2852
vn -0.5407 0.6770 -0.4992
vn -0.1564 -0.9296 -0.3337
vn -0.0711 -0.8530 -0.5170
vn -0.0891 -0.2576 -0.9621
vn -0.0856 -0.2387 -0.9673
vn -0.0060 1.0000 0.0000
vn -0.0045 1.0000 -0.0041
vn -0.0794 0.6673 -0.7406
vn -0.0512 0.7300 -0.6815
vn -0.6903 -0.3451 -0.6359
vn -0.0630 -0.8535 -0.5173
vn 0.9974 -0.0485 -0.0528
vn 0.9942 -0.0921 -0.0558
vn 0.0153 0.6141 -0.7891
vn 0.0348 0.4720 -0.8809
vn -0.9955 0.0641 0.0697
vn -0.9973 0.0631 0.0382
vn -0.0268 -0.8841 0.4666
vn -0.0696 -0.9433 0.3246
vn 0.8226 0.3848 0.4186
vn 0.0396 0.7033 -0.7098
vn 0.0201 0.7332 -0.6798
vn -0.1735 -0.6666 -0.7250
vn -0.0687 -0.9889 0.1316
vn -0.0278 -0.9045 0.4255
vn 0.4748 0.8801 -0.0000
vn 0.7139 0.7002 -0.0000
vn 0.8072 0.5903 -0.0000
vn -0.0092 -0.9999 -0.0084
# 183 vertex normals

vt 0.3214 0.0000 1.0000
vt 0.4643 0.0000 1.0000
vt 0.4643 1.0000 1.0000
vt 0.3214 1.0000 1.0000
vt 0.6071 0.0000 1.0000
vt 0.6071 1.0000 1.0000
vt 0.7500 0.0000 1.0000
vt 0.7500 1.0000 1.0000
vt 0.8909 0.8117 -0.2500
vt 0.5000 0.8117 -0.2500
vt 0.5000 1.0000 -0.2500
vt 0.7169 0.0495 0.2500
vt 0.9875 0.3887 0.2500
vt 0.8909 0.8117 0.2500
vt 0.5000 0.0495 0.2500
vt 0.5000 1.0000 0.2500
vt 0.9875 0.3887 -0.2500
vt 0.7169 0.0495 -0.2500
vt 0.2500 0.0000 1.0000
vt 0.5000 0.0495 -0.2500
vt 0.9392 0.6002 -0.2500
vt 0.8522 0.2191 -0.2500
vt 0.5000 0.3887 -0.2500
vt 0.5000 0.6002 -0.2500
vt 0.5000 0.2191 -0.2500
vt 0.2500 1.0000 1.0000
# 26 texture coords

g Cylinder001
usemtl wire_008008136
s 8
f 1/1/1 2/2/2 3/3/2 
f 3/3/2 4/4/1 1/1/1 
f 2/2/2 5/5/3 6/6/3 
f 6/6/3 3/3/2 2/2/2 
f 5/5/3 7/7/4 8/8/4 
f 8/8/4 6/6/3 5/5/3 
s 1
f 9/9/5 10/10/6 11/11/7 
f 12/12/8 13/13/8 14/14/8 
f 15/15/8 12/12/8 14/14/8 
f 16/16/8 15/15/8 14/14/8 
s off
f 4/4/9 3/3/9 17/13/9 
f 17/13/10 18/12/10 4/4/10 
f 3/3/11 6/6/11 19/14/11 
f 19/14/12 17/13/12 3/3/12 
f 6/6/13 8/8/13 20/16/13 
f 20/16/14 19/14/14 6/6/14 
f 18/12/15 17/13/15 21/13/15 
f 21/13/15 22/12/15 18/12/15 
f 17/13/16 19/14/16 23/14/16 
f 23/14/16 21/13/16 17/13/16 
f 19/14/17 20/16/17 24/16/17 
f 24/16/17 23/14/17 19/14/17 
f 22/12/18 21/13/18 25/13/18 
f 25/13/19 26/12/19 22/12/19 
f 21/13/20 23/14/20 27/14/20 
f 27/14/21 25/13/21 21/13/21 
f 23/14/22 24/16/22 28/16/22 
f 28/16/23 27/14/23 23/14/23 
f 26/12/24 25/13/24 13/13/24 
f 13/13/25 12/12/25 26/12/25 
f 25/13/26 27/14/26 14/14/26 
f 14/14/27 13/13/27 25/13/27 
f 27/14/28 28/16/28 16/16/28 
f 16/16/29 14/14/29 27/14/29 
f 7/7/30 5/5/30 29/9/30 
f 29/9/30 30/11/30 7/7/30 
f 5/5/31 2/2/31 31/17/31 
f 31/17/31 29/9/31 5/5/31 
f 2/2/32 1/1/32 32/18/32 
f 32/18/32 31/17/32 2/2/32 
f 33/19/33 34/20/33 32/18/33 
f 32/18/33 1/1/33 33/19/33 
f 30/11/34 29/9/34 35/9/34 
f 35/9/35 36/11/35 30/11/35 
f 29/9/36 31/17/36 37/17/36 
f 37/17/37 35/9/37 29/9/37 
f 31/17/38 32/18/38 38/18/38 
f 38/18/39 37/17/39 31/17/39 
f 34/20/40 39/20/40 38/18/40 
f 38/18/40 32/18/40 34/20/40 
f 36/11/41 35/9/41 40/9/41 
f 40/9/41 41/11/41 36/11/41 
f 35/9/42 37/17/42 42/17/42 
f 42/17/42 40/9/42 35/9/42 
f 37/17/43 38/18/43 43/18/43 
f 43/18/43 42/17/43 37/17/43 
f 39/20/33 44/20/33 43/18/33 
f 43/18/33 38/18/33 39/20/33 
f 41/11/44 40/9/44 45/9/44 
f 45/9/45 46/11/45 41/11/45 
f 40/9/46 42/17/46 47/17/46 
f 47/17/47 45/9/47 40/9/47 
f 42/17/48 43/18/48 48/18/48 
f 48/18/49 47/17/49 42/17/49 
f 44/20/50 49/20/50 48/18/50 
f 48/18/51 43/18/51 44/20/51 
f 50/11/52 51/9/52 52/9/52 
f 52/9/53 53/11/53 50/11/53 
f 45/9/54 47/17/54 54/17/54 
f 45/9/55 54/17/55 55/21/55 
f 45/9/56 55/21/56 56/9/56 
f 47/17/57 48/18/57 57/18/57 
f 47/17/58 57/18/58 58/22/58 
f 47/17/59 58/22/59 54/17/59 
f 49/20/33 59/20/33 57/18/33 
f 57/18/60 48/18/60 49/20/60 
s 1
f 55/21/61 54/17/62 60/23/63 
f 60/23/63 61/24/61 55/21/61 
f 62/18/64 63/20/65 64/25/66 
f 64/25/66 65/22/67 62/18/64 
s off
f 66/11/68 56/9/68 9/9/68 
f 9/9/69 11/11/69 66/11/69 
f 56/9/70 55/21/70 67/21/70 
f 67/21/71 9/9/71 56/9/71 
f 61/24/72 68/24/72 67/21/72 
f 67/21/73 55/21/73 61/24/73 
f 59/20/74 63/20/74 62/18/74 
f 62/18/74 57/18/74 59/20/74 
f 58/22/75 57/18/75 62/18/75 
f 62/18/76 65/22/76 58/22/76 
s 1
f 9/9/5 67/21/77 68/24/78 
f 68/24/78 10/10/6 9/9/5 
f 58/22/79 69/25/80 60/23/63 
f 60/23/63 54/17/62 58/22/79 
s off
f 46/11/81 45/9/81 70/9/81 
f 70/9/81 71/11/81 46/11/81 
f 45/9/81 56/9/81 72/9/81 
f 72/9/81 70/9/81 45/9/81 
f 56/9/81 66/11/81 73/11/81 
f 73/11/81 72/9/81 56/9/81 
f 66/11/81 46/11/81 71/11/81 
f 71/11/81 73/11/81 66/11/81 
f 71/11/82 70/9/82 74/9/82 
f 74/9/83 75/11/83 71/11/83 
f 70/9/84 72/9/84 76/9/84 
f 76/9/85 74/9/85 70/9/85 
f 72/9/86 73/11/86 77/11/86 
f 77/11/87 76/9/87 72/9/87 
f 73/11/88 71/11/88 75/11/88 
f 75/11/89 77/11/89 73/11/89 
f 75/11/90 74/9/90 51/9/90 
f 51/9/90 50/11/90 75/11/90 
f 74/9/91 76/9/91 52/9/91 
f 52/9/92 51/9/92 74/9/92 
f 76/9/93 77/11/93 53/11/93 
f 53/11/93 52/9/93 76/9/93 
f 77/11/94 75/11/94 50/11/94 
f 50/11/95 53/11/95 77/11/95 
s 8
f 1/1/1 4/4/1 78/26/60 
f 78/26/60 33/19/33 1/1/1 
s off
f 78/26/96 4/4/96 18/12/96 
f 18/12/96 79/15/96 78/26/96 
f 18/12/60 22/12/60 80/15/60 
f 80/15/60 79/15/60 18/12/60 
f 22/12/97 26/12/97 81/15/97 
f 81/15/97 80/15/97 22/12/97 
f 26/12/98 12/12/98 15/15/98 
f 15/15/98 81/15/98 26/12/98 
f 69/25/99 58/22/99 65/22/99 
f 65/22/100 64/25/100 69/25/100 
s 8
f 82/1/101 83/4/101 84/3/102 
f 84/3/102 85/2/102 82/1/101 
f 85/2/102 84/3/102 86/6/103 
f 86/6/103 87/5/103 85/2/102 
f 87/5/103 86/6/103 8/8/4 
f 8/8/4 7/7/4 87/5/103 
s 1
f 88/9/104 11/11/7 10/10/6 
f 89/14/8 90/13/8 91/12/8 
f 89/14/8 91/12/8 15/15/8 
f 16/16/8 89/14/8 15/15/8 
s off
f 83/4/105 92/12/105 93/13/105 
f 93/13/106 84/3/106 83/4/106 
f 84/3/107 93/13/107 94/14/107 
f 94/14/108 86/6/108 84/3/108 
f 86/6/109 94/14/109 20/16/109 
f 20/16/110 8/8/110 86/6/110 
f 92/12/111 95/12/111 96/13/111 
f 96/13/111 93/13/111 92/12/111 
f 93/13/112 96/13/112 97/14/112 
f 97/14/112 94/14/112 93/13/112 
f 94/14/113 97/14/113 24/16/113 
f 24/16/113 20/16/113 94/14/113 
f 95/12/114 98/12/114 99/13/114 
f 99/13/115 96/13/115 95/12/115 
f 96/13/116 99/13/116 100/14/116 
f 100/14/117 97/14/117 96/13/117 
f 97/14/118 100/14/118 28/16/118 
f 28/16/119 24/16/119 97/14/119 
f 98/12/120 91/12/120 90/13/120 
f 90/13/121 99/13/121 98/12/121 
f 99/13/122 90/13/122 89/14/122 
f 89/14/123 100/14/123 99/13/123 
f 100/14/124 89/14/124 16/16/124 
f 16/16/125 28/16/125 100/14/125 
f 7/7/126 30/11/126 101/9/126 
f 101/9/126 87/5/126 7/7/126 
f 87/5/127 101/9/127 102/17/127 
f 102/17/127 85/2/127 87/5/127 
f 85/2/128 102/17/128 103/18/128 
f 103/18/128 82/1/128 85/2/128 
f 33/19/33 82/1/33 103/18/33 
f 103/18/33 34/20/33 33/19/33 
f 30/11/129 36/11/129 104/9/129 
f 104/9/130 101/9/130 30/11/130 
f 101/9/131 104/9/131 105/17/131 
f 105/17/132 102/17/132 101/9/132 
f 102/17/133 105/17/133 106/18/133 
f 106/18/134 103/18/134 102/17/134 
f 34/20/40 103/18/40 106/18/40 
f 106/18/40 39/20/40 34/20/40 
f 36/11/135 41/11/135 107/9/135 
f 107/9/135 104/9/135 36/11/135 
f 104/9/136 107/9/136 108/17/136 
f 108/17/136 105/17/136 104/9/136 
f 105/17/137 108/17/137 109/18/137 
f 109/18/137 106/18/137 105/17/137 
f 39/20/33 106/18/33 109/18/33 
f 109/18/33 44/20/33 39/20/33 
f 41/11/138 46/11/138 110/9/138 
f 110/9/139 107/9/139 41/11/139 
f 107/9/140 110/9/140 111/17/140 
f 111/17/141 108/17/141 107/9/141 
f 108/17/142 111/17/142 112/18/142 
f 112/18/143 109/18/143 108/17/143 
f 44/20/51 109/18/51 112/18/51 
f 112/18/51 49/20/51 44/20/51 
f 113/11/144 114/11/144 115/9/144 
f 115/9/145 116/9/145 113/11/145 
f 110/9/146 117/9/146 118/21/146 
f 110/9/147 118/21/147 119/17/147 
f 110/9/148 119/17/148 111/17/148 
f 111/17/149 119/17/149 120/22/149 
f 111/17/150 120/22/150 121/18/150 
f 111/17/151 121/18/151 112/18/151 
f 49/20/33 112/18/33 121/18/33 
f 121/18/33 59/20/33 49/20/33 
s 1
f 118/21/152 61/24/61 60/23/63 
f 60/23/63 119/17/153 118/21/152 
f 122/18/154 123/22/155 64/25/66 
f 64/25/66 63/20/65 122/18/154 
s off
f 66/11/156 11/11/156 88/9/156 
f 88/9/157 117/9/157 66/11/157 
f 117/9/158 88/9/158 124/21/158 
f 124/21/159 118/21/159 117/9/159 
f 61/24/160 118/21/160 124/21/160 
f 124/21/161 68/24/161 61/24/161 
f 59/20/74 121/18/74 122/18/74 
f 122/18/74 63/20/74 59/20/74 
f 120/22/162 123/22/162 122/18/162 
f 122/18/163 121/18/163 120/22/163 
s 1
f 88/9/104 10/10/6 68/24/78 
f 68/24/78 124/21/164 88/9/104 
f 120/22/80 119/17/153 60/23/63 
f 60/23/63 69/25/80 120/22/80 
s off
f 46/11/165 125/11/165 126/9/165 
f 126/9/165 110/9/165 46/11/165 
f 110/9/165 126/9/165 127/9/165 
f 127/9/165 117/9/165 110/9/165 
f 117/9/165 127/9/165 128/11/165 
f 128/11/165 66/11/165 117/9/165 
f 66/11/165 128/11/165 125/11/165 
f 125/11/165 46/11/165 66/11/165 
f 125/11/166 129/11/166 130/9/166 
f 130/9/167 126/9/167 125/11/167 
f 126/9/168 130/9/168 131/9/168 
f 131/9/169 127/9/169 126/9/169 
f 127/9/170 131/9/170 132/11/170 
f 132/11/171 128/11/171 127/9/171 
f 128/11/172 132/11/172 129/11/172 
f 129/11/173 125/11/173 128/11/173 
f 129/11/174 113/11/174 116/9/174 
f 116/9/174 130/9/174 129/11/174 
f 130/9/175 116/9/175 115/9/175 
f 115/9/176 131/9/176 130/9/176 
f 131/9/177 115/9/177 114/11/177 
f 114/11/177 132/11/177 131/9/177 
f 132/11/178 114/11/178 113/11/178 
f 113/11/179 129/11/179 132/11/179 
s 8
f 82/1/101 33/19/33 78/26/60 
f 78/26/60 83/4/101 82/1/101 
s off
f 78/26/180 79/15/180 92/12/180 
f 92/12/180 83/4/180 78/26/180 
f 92/12/33 79/15/33 80/15/33 
f 80/15/33 95/12/33 92/12/33 
f 95/12/181 80/15/181 81/15/181 
f 81/15/181 98/12/181 95/12/181 
f 98/12/182 81/15/182 15/15/182 
f 15/15/182 91/12/182 98/12/182 
f 69/25/183 64/25/183 123/22/183 
f 123/22/99 120/22/99 69/25/99 
# 260 faces

